<svg xmlns="http://www.w3.org/2000/svg" xmlns:xlink="http://www.w3.org/1999/xlink" width="984.504" height="951.407" viewBox="0 0 984.504 951.407">
  <defs>
    <linearGradient id="linear-gradient" x1="-0.212" y1="-0.432" x2="1.127" y2="1.32" gradientUnits="objectBoundingBox">
      <stop offset="0" stop-color="#eae9e9" stop-opacity="0"/>
      <stop offset="1"/>
    </linearGradient>
  </defs>
  <g id="Group_269" data-name="Group 269" transform="translate(-20538.165 -6932)">
    <g id="Group_267" data-name="Group 267" transform="translate(21007.42 6932)">
      <path id="Path_759" data-name="Path 759" d="M1038.963,722.17,781.435,870.744l257.719,148.574,257.338-148.574Z" transform="translate(-781.435 -722.17)" fill="#4cabfb"/>
      <path id="Path_760" data-name="Path 760" d="M1038.963,865.92,781.435,1014.494l257.719,148.574,257.338-148.574Z" transform="translate(-781.435 -379.227)" opacity="0.4" fill="url(#linear-gradient)"/>
      <path id="Path_761" data-name="Path 761" d="M1039.154,914.627l-.19,297.148L781.816,1063.2l-.381-297.148" transform="translate(-781.435 -617.479)" fill="#4370d2"/>
      <path id="Path_762" data-name="Path 762" d="M857.555,1211.775V914.627l257.338-148.574.191,297.148Z" transform="translate(-599.836 -617.479)" fill="#3460c0"/>
    </g>
    <g id="Group_268" data-name="Group 268" transform="translate(20538.164 7296.73)">
      <path id="Path_763" data-name="Path 763" d="M1003.579,659.194,1130.8,585.905l126.846,73.289-127.034,73.289Z" transform="translate(-1003.579 -439.368)" fill="#4cabfb"/>
      <path id="Path_764" data-name="Path 764" d="M1003.579,742.576v-146.5l127.034,73.289.094,146.5Z" transform="translate(-1003.579 -376.253)" fill="#4370d2"/>
      <path id="Path_765" data-name="Path 765" d="M1021.309,815.865l126.94-73.289v-146.5l-127.034,73.289Z" transform="translate(-894.181 -376.253)" fill="#1d8984"/>
      <path id="Path_766" data-name="Path 766" d="M1021.16,669.436l127.223-73.289,126.846,73.289-127.034,73.289Z" transform="translate(-894.523 -375.834)" fill="#c0e4ef"/>
      <path id="Path_767" data-name="Path 767" d="M1021.16,752.818v-146.5l127.034,73.289.094,146.5Z" transform="translate(-894.523 -312.72)" fill="#4370d2"/>
      <path id="Path_768" data-name="Path 768" d="M1038.89,826.107l126.94-73.289v-146.5L1038.8,679.61Z" transform="translate(-785.124 -312.72)" fill="#1d8984"/>
      <path id="Path_769" data-name="Path 769" d="M1038.8,679.61l127.222-73.289,126.847,73.289L1165.83,752.9Z" transform="translate(-785.124 -312.72)" fill="#c0e4ef"/>
      <path id="Path_770" data-name="Path 770" d="M1038.8,762.993V616.5l127.034,73.289.094,146.5Z" transform="translate(-785.124 -249.605)" fill="#4370d2"/>
      <path id="Path_771" data-name="Path 771" d="M1056.526,836.282l126.94-73.289V616.5l-127.034,73.289Z" transform="translate(-675.726 -249.605)" fill="#3460c0"/>
      <path id="Path_772" data-name="Path 772" d="M1021.309,795.522l126.94-73.289v-146.5l-127.034,73.289Z" transform="translate(-894.181 -502.447)" fill="#1d8984"/>
      <path id="Path_773" data-name="Path 773" d="M1021.215,649.025l127.222-73.289,126.847,73.289-127.035,73.289Z" transform="translate(-894.181 -502.447)" fill="#4cabfb"/>
      <path id="Path_774" data-name="Path 774" d="M1021.215,732.407V585.91L1148.249,659.2l.094,146.5Z" transform="translate(-894.181 -439.332)" fill="#4370d2"/>
      <path id="Path_775" data-name="Path 775" d="M1038.945,805.7l126.941-73.289V585.91L1038.851,659.2Z" transform="translate(-784.783 -439.332)" fill="#1d8984"/>
      <path id="Path_776" data-name="Path 776" d="M1038.89,805.764l126.94-73.289v-146.5L1038.8,659.267Z" transform="translate(-785.124 -438.914)" fill="#1d8984"/>
      <path id="Path_777" data-name="Path 777" d="M1038.8,659.267l127.222-73.289,126.847,73.289L1165.83,732.556Z" transform="translate(-785.124 -438.914)" fill="#c0e4ef"/>
      <path id="Path_778" data-name="Path 778" d="M1038.8,742.649v-146.5l127.034,73.289.094,146.5Z" transform="translate(-785.124 -375.799)" fill="#4370d2"/>
      <path id="Path_779" data-name="Path 779" d="M1056.526,815.939l126.94-73.289v-146.5l-127.034,73.289Z" transform="translate(-675.726 -375.799)" fill="#3460c0"/>
      <path id="Path_780" data-name="Path 780" d="M1038.89,785.348l126.94-73.289v-146.5L1038.8,638.85Z" transform="translate(-785.124 -565.562)" fill="#1d8984"/>
      <path id="Path_781" data-name="Path 781" d="M1038.8,638.85l127.222-73.289,126.847,73.289L1165.83,712.14Z" transform="translate(-785.124 -565.562)" fill="#4cabfb"/>
      <path id="Path_782" data-name="Path 782" d="M1038.8,722.233v-146.5l127.034,73.289.094,146.5Z" transform="translate(-785.124 -502.447)" fill="#4370d2"/>
      <path id="Path_783" data-name="Path 783" d="M1056.526,795.522l126.94-73.289v-146.5l-127.034,73.289Z" transform="translate(-675.726 -502.447)" fill="#3460c0"/>
    </g>
  </g>
</svg>
