<?xml version="1.0" encoding="utf-8"?>
<!-- Generator: Adobe Illustrator 23.0.2, SVG Export Plug-In . SVG Version: 6.00 Build 0)  -->
<svg version="1.1" id="Capa_1" xmlns="http://www.w3.org/2000/svg" xmlns:xlink="http://www.w3.org/1999/xlink" x="0px" y="0px"
	 viewBox="0 0 300 300" style="enable-background:new 0 0 300 300;" xml:space="preserve">
<style type="text/css">
	.st0{fill:#3460C0;}
	.st1{fill:#4CABFB;}
	.st2{fill:#4370D2;}
	.st3{fill:#3A3A3A;}
</style>
<polygon class="st0" points="138,165.4 140.2,181.1 158.6,175.9 221.9,137.5 221.9,130.1 202.2,123.9 153.6,141.6 "/>
<polygon class="st1" points="67.3,132 67.3,130.1 70.9,128 152.6,172.1 146.4,179.4 124.1,174.2 73.5,139.8 "/>
<polygon class="st0" points="140,172 140,261.2 144.6,263.8 150.5,260.4 150.5,171.3 "/>
<g>
	<polygon class="st1" points="66.5,129 144.7,84 222.6,129 144.6,174 	"/>
	<polygon class="st2" points="66.5,218.9 66.5,129 144.6,174 144.6,263.9 	"/>
	<polygon class="st0" points="144.6,263.9 222.6,218.9 222.6,129 144.6,174 	"/>
	<polygon class="st3" points="104.8,130.2 144.6,107.3 184.3,130.2 144.6,153.1 	"/>
</g>
<path class="st0" d="M148.7,65.3l21.9-8l8.9,2.8v3.4l-28.6,17.3l-8.3,2.4l-1-7.1L148.7,65.3z"/>
<polygon class="st1" points="109.7,61 109.7,60.1 111.3,59.2 148.2,79.1 145.4,82.4 135.4,80 112.5,64.5 "/>
<polygon class="st0" points="142.5,79 142.5,119.3 144.6,120.5 147.2,119 147.2,78.7 "/>
<polygon class="st0" points="141.6,76.1 142.6,83.2 150.9,80.8 179.5,63.5 179.5,60.1 170.6,57.3 148.6,65.3 "/>
<polygon class="st1" points="109.6,61 109.6,60.1 111.2,59.2 148.2,79.2 145.4,82.4 135.3,80.1 112.4,64.5 "/>
<polygon class="st0" points="142.5,79.1 142.5,119.4 144.5,120.6 147.2,119 147.2,78.8 "/>
<polygon class="st0" points="141.6,76.3 142.6,83.4 150.9,81 179.3,63.8 179.3,60.4 170.5,57.6 148.6,65.6 "/>
<polygon class="st1" points="109.8,61.3 109.8,60.4 111.4,59.5 148.2,79.3 145.3,82.6 135.3,80.3 112.6,64.8 "/>
<polygon class="st0" points="142.5,79.3 142.5,119.4 144.5,120.6 147.2,119.1 147.2,79 "/>
<g>
	<polygon class="st1" points="109.6,60.2 144.6,40 179.5,60.2 144.6,80.3 	"/>
	<polygon class="st2" points="109.6,100.5 109.6,60.2 144.6,80.3 144.6,120.6 	"/>
	<polygon class="st0" points="144.6,120.6 179.5,100.5 179.5,60.2 144.6,80.3 	"/>
</g>
</svg>
