<?xml version="1.0" encoding="utf-8"?>
<!-- Generator: Adobe Illustrator 23.0.2, SVG Export Plug-In . SVG Version: 6.00 Build 0)  -->
<svg version="1.1" id="Capa_1" xmlns="http://www.w3.org/2000/svg" xmlns:xlink="http://www.w3.org/1999/xlink" x="0px" y="0px"
	 viewBox="0 0 931 769" style="enable-background:new 0 0 931 769;" xml:space="preserve">
<style type="text/css">
	.st0{opacity:0.4;fill:url(#SVGID_1_);enable-background:new    ;}
	.st1{opacity:0.4;fill:url(#SVGID_2_);enable-background:new    ;}
	.st2{fill:#3460C0;}
	.st3{fill:#4CABFB;}
	.st4{fill:#4370D2;}
	.st5{fill:url(#SVGID_3_);}
	.st6{fill:#1D8984;}
	.st7{fill:#C0E4EF;}
	.st8{opacity:0.4;fill:url(#SVGID_4_);enable-background:new    ;}
</style>
<linearGradient id="SVGID_1_" gradientUnits="userSpaceOnUse" x1="510.2644" y1="631.9876" x2="217.6192" y2="313.0199">
	<stop  offset="0.1791" style="stop-color:#EAE9E9;stop-opacity:0"/>
	<stop  offset="0.1902" style="stop-color:#DBDADA;stop-opacity:2.700597e-02"/>
	<stop  offset="0.2321" style="stop-color:#A8A8A8;stop-opacity:0.1287"/>
	<stop  offset="0.2759" style="stop-color:#7B7B7B;stop-opacity:0.235"/>
	<stop  offset="0.3208" style="stop-color:#555555;stop-opacity:0.3443"/>
	<stop  offset="0.3672" style="stop-color:#363636;stop-opacity:0.457"/>
	<stop  offset="0.4156" style="stop-color:#1E1E1E;stop-opacity:0.5743"/>
	<stop  offset="0.4666" style="stop-color:#0D0D0D;stop-opacity:0.6982"/>
	<stop  offset="0.5222" style="stop-color:#030303;stop-opacity:0.8333"/>
	<stop  offset="0.5908" style="stop-color:#000000"/>
</linearGradient>
<polygon class="st0" points="405.3,473.2 328.2,517.8 405.6,562.4 482.8,517.8 "/>
<linearGradient id="SVGID_2_" gradientUnits="userSpaceOnUse" x1="271.8384" y1="391.9349" x2="42.8869" y2="142.3898">
	<stop  offset="0.1791" style="stop-color:#EAE9E9;stop-opacity:0"/>
	<stop  offset="0.1902" style="stop-color:#DBDADA;stop-opacity:2.700597e-02"/>
	<stop  offset="0.2321" style="stop-color:#A8A8A8;stop-opacity:0.1287"/>
	<stop  offset="0.2759" style="stop-color:#7B7B7B;stop-opacity:0.235"/>
	<stop  offset="0.3208" style="stop-color:#555555;stop-opacity:0.3443"/>
	<stop  offset="0.3672" style="stop-color:#363636;stop-opacity:0.457"/>
	<stop  offset="0.4156" style="stop-color:#1E1E1E;stop-opacity:0.5743"/>
	<stop  offset="0.4666" style="stop-color:#0D0D0D;stop-opacity:0.6982"/>
	<stop  offset="0.5222" style="stop-color:#030303;stop-opacity:0.8333"/>
	<stop  offset="0.5908" style="stop-color:#000000"/>
</linearGradient>
<polygon class="st1" points="189.7,267.7 129.4,302.6 190,337.5 250.4,302.6 "/>
<polygon class="st2" points="124.6,232 126.3,243.2 139.5,239.5 184.9,211.9 184.9,206.6 170.8,202.2 135.9,214.9 "/>
<polygon class="st3" points="73.9,207.9 73.9,206.6 76.5,205.1 135.2,236.8 130.7,242 114.7,238.3 78.4,213.6 "/>
<polygon class="st2" points="126.1,236.7 126.1,300.7 129.4,302.6 133.6,300.1 133.6,236.2 "/>
<polygon class="st2" points="314.2,198.6 319.2,233.1 359.7,221.6 498.6,137.2 498.2,121.1 455.6,107.2 348.7,146.2 "/>
<polygon class="st3" points="158.7,125 160.1,121.3 167.3,116.5 346.4,213.3 332.7,229.3 283.8,217.8 172.4,142.2 "/>
<polygon class="st2" points="318.7,213 318.7,409.3 328.7,415.1 341.7,407.5 341.7,211.5 "/>
<polygon class="st2" points="321.6,419.4 323.9,435.1 342.3,429.8 405.5,391.5 405.5,384 385.8,377.8 337.3,395.6 "/>
<polygon class="st3" points="251,385.9 251,384 254.6,381.9 336.3,426.1 330,433.4 307.8,428.1 257.2,393.7 "/>
<polygon class="st2" points="323.6,425.9 323.6,515.2 328.2,517.8 334.1,514.4 334.1,425.3 "/>
<polygon class="st2" points="133.6,694.5 137.3,720.3 167.7,711.7 271.4,648.4 271.3,636.3 239.6,625.9 159.4,655.1 "/>
<polygon class="st3" points="17.4,639.2 17.3,636.2 22.8,632.7 157.7,705.5 147.4,717.5 110.7,708.9 27.2,652.1 "/>
<polygon class="st2" points="154.2,704.1 154.2,769.8 144.6,769.8 144.6,709.1 144.5,769.8 136.9,769.8 136.9,705.2 137.8,705.2 
	153.1,704.2 "/>
<polygon class="st2" points="412,600.1 413.6,611.2 426.7,607.5 471.6,580.3 471.6,575 457.6,570.6 423.1,583.2 "/>
<polygon class="st3" points="361.8,576.3 361.8,575 364.3,573.5 422.4,604.8 418,610 402.2,606.3 366.2,581.9 "/>
<polygon class="st2" points="413.4,604.7 413.4,668.1 416.7,669.9 420.9,667.5 420.9,604.2 "/>
<polygon class="st4" points="697.2,575 733.2,635.4 851.1,675.7 869.3,664.5 837.4,554 688.7,543.3 "/>
<polygon class="st4" points="451.2,582.9 451.2,609.6 593.9,691.7 614.4,675.5 594.6,624.7 453.7,579.1 "/>
<polygon class="st2" points="576.6,500.2 580.5,527.4 612.5,518.4 722.4,451.7 722.4,438.7 688.2,428 603.8,458.8 "/>
<polygon class="st3" points="453.7,442 453.7,438.7 459.9,435.1 602,511.8 591.2,524.5 552.5,515.4 464.5,455.6 "/>
<polygon class="st2" points="580.1,511.6 580.1,666.6 588,671.2 598.3,665.2 598.3,510.4 "/>
<polygon class="st2" points="711.6,426.6 715.5,453.7 747.5,444.7 857.3,378.1 857.3,365.1 823.1,354.4 738.8,385.2 "/>
<polygon class="st3" points="588.9,368.4 588.9,365.1 595.1,361.5 737,438.2 726.2,450.8 687.6,441.7 599.7,382 "/>
<polygon class="st2" points="715.1,437.9 715.1,592.8 723.1,597.4 733.3,591.4 733.3,436.7 "/>
<polygon class="st2" points="931,438.3 931,473.4 930.3,473.8 930.3,490.1 883.5,518.5 869.3,522.5 862.3,524.5 862.1,524.6 
	858.4,525.6 858.3,525.6 851.5,527.5 851.1,524.4 850.7,521.9 850.3,519.3 848.9,509.4 848.9,509.1 847.6,500.3 848.6,498.8 
	858.6,483.5 874.8,458.8 "/>
<polygon class="st3" points="724.6,442 724.6,438.7 730.8,435.1 873.1,511.9 862.2,524.6 823.5,515.5 735.4,455.7 "/>
<polygon class="st2" points="851.1,510.7 851.1,665.9 859.1,670.5 869.3,664.5 869.3,509.5 "/>
<polygon class="st2" points="711.4,729.5 715.4,756.8 747.5,747.7 857.9,680.8 857.9,667.8 823.5,657 738.8,687.9 "/>
<polygon class="st3" points="588.1,671.1 588.1,667.8 594.3,664.1 737,741.2 726.1,753.8 687.3,744.7 598.9,684.7 "/>
<polygon class="st2" points="733.2,739.7 733.2,769.8 715,769.8 715,740.9 722,740.4 722.1,740.4 "/>
<linearGradient id="SVGID_3_" gradientUnits="userSpaceOnUse" x1="852.5436" y1="959.5709" x2="-25.3918" y2="292.2161">
	<stop  offset="0" style="stop-color:#EAE9E9;stop-opacity:0"/>
	<stop  offset="1" style="stop-color:#000000"/>
</linearGradient>
<polygon class="st5" points="471.4,638.3 416.7,670 471.6,701.6 526.5,670 "/>
<path class="st6" d="M471.6,494L471.6,494z"/>
<path class="st7" d="M470.8,493.8L470.8,493.8z"/>
<polygon class="st3" points="722.7,280 451.2,437.2 587.2,515.5 723,437.2 "/>
<polygon class="st2" points="723,436.6 723.1,593.4 587.1,672.2 587.2,515.5 "/>
<polygon class="st3" points="722.7,280 587.3,358.4 723.2,436.7 859,358.4 "/>
<polygon class="st6" points="859,358.4 858.5,514.5 723.1,593.4 723.2,436.7 "/>
<polygon class="st6" points="722.5,593.3 722.5,593.8 722,749.5 722,749.5 721.9,749.5 687.2,769.8 586.6,769.8 586.6,718.7 
	586.7,672 586.7,671.7 586.7,671.7 586.8,671.6 587.1,671.5 592.1,668.6 625.3,649.4 "/>
<polygon class="st3" points="931,399.8 931,473.4 930.3,473.8 868.5,509.5 868.4,509.5 859.1,514.9 858.6,514.7 858.4,514.6 
	858.4,514.6 851.5,510.6 848.9,509.1 740.5,446.7 733.3,442.5 733.3,442.5 725.7,438.1 724.2,437.3 723.2,436.7 723,436.6 
	722.9,436.5 722.6,436.3 723,436.1 727.9,433.3 850.2,362.9 858.5,358.1 858.5,358.1 859,358.3 "/>
<polygon class="st4" points="722.2,436.5 722.3,593.3 858.3,671.5 858.3,514.8 "/>
<polygon class="st2" points="930.3,473.3 930.3,629.6 858.3,671.5 858.3,670.1 858.3,626.6 858.4,525.6 858.4,523.7 858.4,514.8 
	858.6,514.7 867.4,509.6 868,509.2 "/>
<polygon class="st6" points="723.1,593.4 722,749.5 722,749.5 721.9,749.5 687.1,769.8 586.6,769.8 586.6,750 586.7,672 
	586.7,671.6 586.8,671.6 587.1,671.4 592.1,668.6 722.5,593.8 "/>
<polygon class="st3" points="723.1,593.4 586.6,671.5 722.5,749.9 858.3,671.5 "/>
<polygon class="st4" points="722.5,749.9 722.5,769.8 586.6,769.8 586.6,671.5 586.8,671.6 587,671.7 587.1,671.8 587.4,672 
	587.4,672 590,673.5 643.5,704.3 713.7,744.8 715,745.5 721.9,749.5 "/>
<polygon class="st2" points="858.3,671.5 858,769.8 722.5,769.8 722.5,749.9 733.2,743.7 736.4,741.9 851.1,675.7 857.9,671.7 "/>
<polygon class="st3" points="416.5,543.3 361.8,575 416.7,606.6 471.6,575 "/>
<polygon class="st4" points="361.8,575 361.8,638.3 416.7,670 416.7,606.6 "/>
<polygon class="st2" points="471.6,575 471.4,638.1 416.7,670 416.7,606.6 "/>
<polygon class="st4" points="587.2,672 587.2,672.1 587.1,769.8 485,769.8 451.3,750.3 451.3,593.6 471.5,605.3 586.6,671.7 
	586.7,671.7 586.7,671.7 587.1,671.9 "/>
<polygon class="st3" points="129.3,174.6 73.9,206.6 129.5,238.7 185,206.6 "/>
<polygon class="st4" points="73.9,206.6 73.9,270.7 129.4,302.7 129.5,238.7 "/>
<polygon class="st2" points="185,206.6 184.8,270.5 129.4,302.7 129.5,238.7 "/>
<polygon class="st3" points="328.2,22.9 158.7,121 328.9,219.1 498.9,121 "/>
<linearGradient id="SVGID_4_" gradientUnits="userSpaceOnUse" x1="758.5674" y1="636.4791" x2="170.9545" y2="135.963">
	<stop  offset="0.2492" style="stop-color:#EAE9E9;stop-opacity:0"/>
	<stop  offset="0.7319" style="stop-color:#000000"/>
</linearGradient>
<polygon class="st8" points="498.3,317.2 328.8,415.3 499,513.4 669,415.3 "/>
<polygon class="st4" points="158.7,121 158.7,317.2 328.7,415.3 328.9,219.1 "/>
<polygon class="st2" points="498.9,121 498.3,316.6 328.7,415.3 328.9,219.1 "/>
<polygon class="st3" points="328,339.5 251,384.1 328.3,428.7 405.5,384.1 "/>
<polygon class="st4" points="251,384.1 251,473.2 328.2,517.8 328.3,428.7 "/>
<polygon class="st2" points="405.5,384.1 405.2,472.9 328.2,517.8 328.3,428.7 "/>
<polygon class="st3" points="144.5,562 17,635.6 144.6,709.1 272,635.6 "/>
<polygon class="st4" points="144.6,709.1 144.5,769.8 17.2,769.8 17,635.6 137.8,705.2 "/>
<polygon class="st2" points="272.1,769.8 144.6,769.8 144.6,709.1 153.1,704.2 272,635.6 "/>
<polygon class="st4" points="451.2,437.2 451.2,593.9 587.1,672.2 587.2,515.5 "/>
</svg>
