<?xml version="1.0" encoding="utf-8"?>
<!-- Generator: Adobe Illustrator 23.0.2, SVG Export Plug-In . SVG Version: 6.00 Build 0)  -->
<svg version="1.1" id="Capa_1" xmlns="http://www.w3.org/2000/svg" xmlns:xlink="http://www.w3.org/1999/xlink" x="0px" y="0px"
	 viewBox="0 0 1080 1080" style="enable-background:new 0 0 1080 1080;" xml:space="preserve">
<style type="text/css">
	.st0{fill:url(#SVGID_1_);}
	.st1{fill:#F7E018;}
	.st2{fill:#FAEC74;}
	.st3{fill:url(#SVGID_2_);}
	.st4{fill:#FBF2A2;}
	.st5{fill:#5B6B7B;}
	.st6{fill:#99A3AD;}
	.st7{fill:#33475B;}
	.st8{fill:#4DBA87;}
	.st9{fill:#435466;}
	.st10{fill:#FF6681;}
	.st11{fill:#FF002E;}
	.st12{fill:#FF3257;}
	.st13{fill:#B6EEFF;}
	.st14{fill:#4AD5FF;}
	.st15{fill:#92E5FF;}
	.st16{fill:#FFFFFF;}
	.st17{fill:#DD0031;}
	.st18{fill:#C3002F;}
	.st19{fill:#78B886;}
	.st20{fill:#1E8A36;}
	.st21{fill:#4AA15E;}
	.st22{fill-rule:evenodd;clip-rule:evenodd;fill:#FFFFFF;}
	.st23{fill:url(#SVGID_3_);}
	.st24{fill:url(#SVGID_4_);}
	.st25{fill:url(#SVGID_5_);}
	.st26{fill:url(#SVGID_6_);}
</style>
<g>
	<linearGradient id="SVGID_1_" gradientUnits="userSpaceOnUse" x1="-293.5732" y1="674.0884" x2="2389.7815" y2="-7.2019">
		<stop  offset="0.269" style="stop-color:#FFFFFF;stop-opacity:0"/>
		<stop  offset="0.2906" style="stop-color:#F0F0F0;stop-opacity:3.545529e-02"/>
		<stop  offset="0.3859" style="stop-color:#B1B1B1;stop-opacity:0.1919"/>
		<stop  offset="0.4803" style="stop-color:#7B7B7B;stop-opacity:0.3468"/>
		<stop  offset="0.5714" style="stop-color:#4F4F4F;stop-opacity:0.4963"/>
		<stop  offset="0.6585" style="stop-color:#2D2D2D;stop-opacity:0.6394"/>
		<stop  offset="0.7408" style="stop-color:#141414;stop-opacity:0.7744"/>
		<stop  offset="0.8161" style="stop-color:#050505;stop-opacity:0.8981"/>
		<stop  offset="0.8782" style="stop-color:#000000"/>
	</linearGradient>
	<polygon class="st0" points="530.3,400.1 417.9,464.9 530.3,529.8 642.6,464.9 	"/>
</g>
<g>
	<g>
		<polygon class="st1" points="249.6,370.1 249.6,356.4 364.3,375.9 382.3,403.9 389.3,436.9 347.3,450.9 298.3,434.9 281.3,415.9 
					"/>
		<path class="st2" d="M363.3,415.9c0,0-1,18,0,19s24.1,6.6,24.1,6.6s7.9-14.6,23.9-19.6s38-22,46-24s31-22.5,31-22.5l0-19.5
			l-10.5-5.7L360.9,410L363.3,415.9z"/>
		<path class="st2" d="M343.3,418.9l19,34v106.3l7,3.7l13-7.6c0,0,4-120.4,5-124.4s-5.7-12-5.7-12l-14.3-10l-22.9,2.1L343.3,418.9z"
			/>
		<g>
			<polygon class="st1" points="249.6,356.4 249.5,494.2 368.9,563.1 369,425.3 			"/>
		</g>
		<g>
			<polygon class="st2" points="488.3,356.4 488.3,494.2 368.9,563.1 369,425.3 			"/>
		</g>
		<path d="M298.6,500.1c1.9,5.8,5.7,12,12.3,15.7c7.3,4.2,12.2,2.6,12.2-7.2v-32.3l-8.2-4.7v32.2c0,4.7-1.7,5-4.4,3.4
			c-2.8-1.6-4-4.5-5.3-7.9L298.6,500.1 M327.6,515.8c2.4,6.9,7.3,13.9,14.9,18.3c7.8,4.5,13.6,3.2,13.6-5.3
			c0-7.9-3.9-13.7-10.9-21.2l-2-2.2c-3.5-3.8-5-5.8-5-8.7c0-2.3,1.5-3.2,3.9-1.8c2.3,1.4,3.9,3.4,5.3,7.1l6.4-1
			c-2.7-7-6.4-11.3-11.6-14.3c-7.3-4.2-12-1.5-12,5.6c0,7.7,3.9,13.6,9.8,19.9l2,2.2c3.7,4.1,6,6.5,6,9.7c0,2.7-2.2,3.4-5.6,1.5
			c-4-2.3-6.3-6.1-8.1-10.4L327.6,515.8"/>
		<g>
			<linearGradient id="SVGID_2_" gradientUnits="userSpaceOnUse" x1="-384.9558" y1="917.3122" x2="1418.9152" y2="-89.1394">
				<stop  offset="0.2589" style="stop-color:#FFFFFF;stop-opacity:0"/>
				<stop  offset="1" style="stop-color:#000000"/>
			</linearGradient>
			<polygon class="st3" points="249.6,494.3 130.3,563.3 249.6,632.2 369,563.3 			"/>
		</g>
	</g>
	<g>
		<polygon class="st4" points="369,287.5 249.6,356.4 369,425.3 488.3,356.4 		"/>
	</g>
</g>
<g>
	<polygon class="st5" points="294.1,600 296.5,619.7 364.5,585.6 364.5,570.3 346,559.6 	"/>
	<polygon class="st5" points="214.5,742.9 252.2,764.7 272.3,753.1 262.6,607.3 192,611.7 199.3,697.6 	"/>
	<g>
		<polygon class="st6" points="252.3,505.5 140,570.3 252.3,635.1 364.5,570.3 		"/>
	</g>
	<g>
		<polygon class="st7" points="140,570.3 139.9,699.9 252.2,764.7 252.3,635.1 		"/>
	</g>
	<g>
		<polygon class="st5" points="364.5,570.3 364.5,699.9 252.2,764.7 252.3,635.1 		"/>
	</g>
	<path class="st8" d="M317,640.4l-7.6,19.6l-7.6-10.8l-25.4,14.6l33,46.9l33-85L317,640.4z"/>
	<path class="st9" d="M317,640.4l-7.6,19.6l-7.6-10.8l-12.2,7l19.8,28.1l19.8-51L317,640.4z"/>
</g>
<g>
	<polygon class="st4" points="369.5,297.7 257.1,362.5 369.5,427.4 481.8,362.5 	"/>
</g>
<g>
	<polygon class="st1" points="257.1,362.5 257,492.2 369.4,557.1 369.5,427.4 	"/>
</g>
<g>
	<polygon class="st2" points="481.8,362.5 481.8,492.2 369.4,557.1 369.5,427.4 	"/>
</g>
<path d="M303.3,497.8c1.8,5.5,5.4,11.3,11.6,14.8c6.8,3.9,11.5,2.4,11.5-6.8v-30.4l-7.7-4.5v30.3c0,4.5-1.6,4.7-4.1,3.2
	c-2.6-1.5-3.7-4.3-5-7.4L303.3,497.8 M330.5,512.6c2.3,6.5,6.9,13.1,14,17.2c7.3,4.2,12.8,3,12.8-5c0-7.4-3.7-12.9-10.2-19.9
	l-1.9-2.1c-3.3-3.6-4.7-5.5-4.7-8.1c0-2.2,1.4-3,3.7-1.7c2.2,1.3,3.6,3.2,5,6.7l6-1c-2.5-6.6-6.1-10.6-11-13.5
	c-6.9-4-11.3-1.4-11.3,5.2c0,7.3,3.7,12.8,9.3,18.8l1.9,2.1c3.5,3.8,5.6,6.1,5.6,9.2c0,2.5-2,3.2-5.2,1.4c-3.8-2.2-5.9-5.7-7.6-9.8
	L330.5,512.6"/>
<g>
	<polygon class="st6" points="252.2,505.4 139.9,570.2 252.2,635.1 364.5,570.2 	"/>
</g>
<g>
	<polygon class="st7" points="139.9,570.2 139.7,699.9 252.1,764.8 252.2,635.1 	"/>
</g>
<g>
	<polygon class="st5" points="364.5,570.2 364.5,699.9 252.1,764.8 252.2,635.1 	"/>
</g>
<g>
	<polygon class="st10" points="566.3,459.9 454,524.8 566.3,589.6 678.7,524.8 	"/>
</g>
<g>
	<polygon class="st11" points="454,524.8 453.9,654.5 566.3,719.3 566.3,589.6 	"/>
</g>
<g>
	<polygon class="st12" points="678.7,524.8 678.7,654.5 566.3,719.3 566.3,589.6 	"/>
</g>
<g>
	<polygon class="st13" points="642.8,205.5 530.4,270.4 642.8,335.2 755.1,270.4 	"/>
</g>
<g>
	<polygon class="st14" points="530.4,270.4 530.3,400.1 642.7,464.9 642.8,335.2 	"/>
</g>
<g>
	<polygon class="st15" points="755.1,270.4 755.1,400.1 642.7,464.9 642.8,335.2 	"/>
</g>
<g>
	<path class="st16" d="M726.1,341.8c-0.7,0.1-1.5,0.3-2.3,0.5c0.1-0.7,0.2-1.3,0.3-2c1.7-10.5,0.6-17.6-3.2-17.9
		c-3.7-0.3-9.6,5.7-15.7,15.2c-0.6,0.9-1.2,1.9-1.7,2.9c-0.4-0.2-0.8-0.4-1.2-0.6c-6.3-2.8-12.7-1.9-16.5,2.8
		c-3.6,4.5-4.7,12.4-3.2,20.6c0.2,0.8,0.3,1.6,0.5,2.4c-0.9,0.8-1.8,1.6-2.6,2.4c-7.4,7.3-12.1,14.7-12.1,19.5c0,5,5.1,7.1,12.8,5.7
		c0.6-0.1,1.3-0.3,1.9-0.4c-0.2,1.1-0.4,2.1-0.6,3.2c-1.5,9.8-0.3,16.2,3.3,16.5c3.8,0.3,10.1-5.9,16.2-15.6c0.5-0.8,1-1.6,1.5-2.4
		c0.6,0.3,1.2,0.6,1.9,0.9c6,2.5,11.8,1.5,15.5-3.1c3.8-4.7,5-13,3.4-21.3c-0.1-0.6-0.3-1.3-0.4-1.9c0.4-0.4,0.9-0.8,1.3-1.2
		c8-7.7,13.2-15.7,13.2-20.8C738.6,342.3,733.7,340.4,726.1,341.8z M707.3,339c5.2-8.2,10-13,12.2-12.8c2.3,0.2,3.3,6,1.8,15.1
		c-0.1,0.6-0.2,1.2-0.3,1.8c-2.9,0.9-6.1,2.1-9.4,3.7c-1.9-2.1-3.9-3.8-5.9-5.1C706.2,340.8,706.8,339.9,707.3,339z M689.3,379.8
		c0.6,1,1.3,2.1,2,3c0.7,1,1.4,2,2.2,2.9c-2.3,1-4.5,1.9-6.5,2.5C687.6,385.6,688.4,382.8,689.3,379.8z M689.2,371.7
		c-0.9-1.9-1.6-3.8-2.2-5.7c2-1.7,4.1-3.3,6.3-4.9c-0.7,1.8-1.5,3.5-2.1,5.3C690.5,368.2,689.9,369.9,689.2,371.7z M690.8,374.9
		c0.9-2.7,1.9-5.5,3-8.2c1.1-2.7,2.2-5.5,3.4-8.2c2.1-1.4,4.2-2.7,6.4-4c2.2-1.3,4.3-2.4,6.4-3.4c1.2,1.3,2.3,2.8,3.4,4.3
		c1.1,1.5,2.1,3.1,3,4.7c-0.9,2.8-1.9,5.5-3,8.3c-1.1,2.7-2.2,5.5-3.4,8.2c-2.1,1.4-4.2,2.7-6.4,4c-2.2,1.3-4.3,2.4-6.3,3.4
		c-1.2-1.3-2.4-2.8-3.4-4.3C692.8,378.1,691.8,376.5,690.8,374.9z M715.9,368.6c0.7-1.8,1.4-3.6,2-5.5c0.9,1.9,1.7,3.8,2.4,5.8
		c-2,1.7-4.2,3.4-6.5,5.1C714.5,372.2,715.3,370.4,715.9,368.6z M718,355.1c-0.6-1-1.3-2.1-2-3c-0.7-1-1.4-1.9-2.1-2.8
		c2.2-1,4.4-1.8,6.4-2.4C719.6,349.5,718.8,352.2,718,355.1z M703.6,345.4c1.4,0.9,2.8,2.1,4.1,3.4c-2.8,1.4-5.5,3-8.3,4.8
		C700.8,350.6,702.2,347.9,703.6,345.4z M687.5,344.8c2.3-2.9,7.5-3.7,13-1.2c0.3,0.2,0.7,0.3,1.1,0.5c-2,3.7-4,7.7-6,12
		c-3.3,2.3-6.4,4.6-9.3,7.1c-0.2-0.7-0.3-1.5-0.5-2.2C684.4,353.9,685.3,347.6,687.5,344.8z M684.1,389.1c-0.6,0.1-1.2,0.3-1.7,0.4
		c-3.4,0.6-6.2,0.5-8.2-0.3c-1.7-0.7-2.6-1.9-2.6-3.3c0-2.9,3.8-8.9,10.1-15.1c0.8-0.8,1.6-1.5,2.4-2.3c0.9,2.8,2,5.6,3.4,8.2
		C686.1,381.1,685,385.3,684.1,389.1z M700.3,395.5c-2.7,4.3-5.4,7.8-7.8,10.2c-2.2,2.1-3.9,3.1-4.9,3c-2.2-0.2-3.1-5.3-1.9-13.7
		c0.1-1,0.3-2,0.5-3c2.9-0.9,6-2.2,9.4-3.9c1.9,2,4,3.8,6,5.1C701.2,394,700.7,394.8,700.3,395.5z M703.7,389.6
		c-1.4-0.9-2.8-2.1-4.2-3.4c1.3-0.7,2.7-1.5,4.1-2.3c1.4-0.8,2.8-1.7,4.2-2.5C706.4,384.3,705.1,387.1,703.7,389.6z M721.9,383.9
		c-0.4,2.8-1.3,5.1-2.3,6.3c-2.2,2.7-6.9,3.6-12,1.4c-0.6-0.2-1.2-0.5-1.8-0.8c2-3.6,3.9-7.7,5.9-12c3.4-2.3,6.6-4.7,9.5-7.2
		c0.1,0.6,0.3,1.2,0.4,1.7C722.2,377.1,722.3,380.8,721.9,383.9z M724.4,365.2c-0.4,0.4-0.8,0.7-1.2,1.1c-0.9-2.7-2.1-5.5-3.5-8.2
		c1.4-4.3,2.5-8.3,3.4-12.1c0.7-0.2,1.4-0.3,2.1-0.4c6.5-1.2,10.4,0.4,10.4,3.3C735.6,352,731.3,358.6,724.4,365.2z"/>
	<path class="st16" d="M703.6,374.6c3.5-2,6.3-6.8,6.3-10.8s-2.8-5.6-6.3-3.6c-3.5,2-6.3,6.8-6.3,10.8
		C697.3,375,700.1,376.6,703.6,374.6z"/>
</g>
<path class="st8" d="M316.9,640.5l-7.6,19.6l-7.6-10.8l-25.4,14.7l33,47l33-85.1L316.9,640.5z"/>
<path class="st9" d="M316.9,640.5l-7.6,19.6l-7.6-10.8l-12.2,7l19.8,28.2l19.8-51L316.9,640.5z"/>
<g>
	<polygon class="st17" points="537.2,504 537.2,504 537.2,504 579.7,492.4 616.3,519 604.4,542.8 604.4,542.8 604.4,542.8 
		563.2,549.6 517.1,528.5 	"/>
	<polygon class="st18" points="537.2,504 544.7,508.3 544.7,508.3 578.7,528 578.7,528 604.4,542.8 604.4,542.8 563.2,549.6 
		517.1,528.5 	"/>
	<path class="st16" d="M544.7,508.3l63.4,14l0,0l-7.3,4.2l0,0l-13.7-3.4l-16.6,9.6l5.9,7.9l0,0l-7.3,4.2l0,0L544.7,508.3
		L544.7,508.3L544.7,508.3L544.7,508.3L544.7,508.3z M566.9,527.8l11.4-6.6l-19.5-4.6L566.9,527.8z"/>
</g>
<g>
	<polygon class="st19" points="817.2,384.7 704.9,449.5 817.2,514.4 929.5,449.5 	"/>
</g>
<g>
	<polygon class="st20" points="704.9,449.5 704.7,579.2 817.1,644.1 817.2,514.4 	"/>
</g>
<g>
	<polygon class="st21" points="929.5,449.5 929.5,579.2 817.1,644.1 817.2,514.4 	"/>
</g>
<path class="st22" d="M879.4,585.1l-1.8,0.3c0,0,0.2-10.8-3.1-9.7c-2.2-1.7,0.4-125.8,8.3-5.2c0,0-2.7,3.2-3.2,6.2
	C879,579.6,879.4,585.1,879.4,585.1L879.4,585.1z"/>
<path class="st22" d="M880.3,574.2c0,0,15.9-21.2,12.2-44.1c-3.6-16.2-12-17.3-13-19c-1-1-2-3.3-2-3.3l0.7,50.3
	C878.2,558,876.8,574.3,880.3,574.2"/>
<path class="st22" d="M876.6,577c0,0-14.9-3.1-14-24.3c0.8-21.2,11.4-37.4,13.4-40.4c1.3-2.4,1.4-3,1.5-4.7
	c0.9,1.8,0.8,33.9,0.9,37.6C878.7,559.5,877.6,573.6,876.6,577z"/>
<path class="st12" d="M551.4,575.5l-6,50.2l48-16c0,0,26.9-19,34.9-23.5c7.9-4.5,51.7-28.5,51.7-28.5v-32.3l-23-13.3l-75.5,56.8
	L551.4,575.5z"/>
<polygon class="st10" points="448.4,525.3 455.2,521.5 572.6,587.4 571.5,597.1 562.8,609.7 525,596.1 450.3,535 "/>
<polygon class="st12" points="563.8,579.6 551.4,584.9 551.4,718.6 563.8,726.1 574.5,719.9 "/>
<g>
	<polygon class="st10" points="564.2,458.6 448.4,525.4 564.2,592.3 679.9,525.4 	"/>
</g>
<g>
	<linearGradient id="SVGID_3_" gradientUnits="userSpaceOnUse" x1="69.8817" y1="937.4472" x2="1281.5833" y2="261.7772">
		<stop  offset="0.269" style="stop-color:#FFFFFF;stop-opacity:0"/>
		<stop  offset="0.2906" style="stop-color:#F0F0F0;stop-opacity:3.545529e-02"/>
		<stop  offset="0.3859" style="stop-color:#B1B1B1;stop-opacity:0.1919"/>
		<stop  offset="0.4803" style="stop-color:#7B7B7B;stop-opacity:0.3468"/>
		<stop  offset="0.5714" style="stop-color:#4F4F4F;stop-opacity:0.4963"/>
		<stop  offset="0.6585" style="stop-color:#2D2D2D;stop-opacity:0.6394"/>
		<stop  offset="0.7408" style="stop-color:#141414;stop-opacity:0.7744"/>
		<stop  offset="0.8161" style="stop-color:#050505;stop-opacity:0.8981"/>
		<stop  offset="0.8782" style="stop-color:#000000"/>
	</linearGradient>
	<polygon class="st23" points="448.8,659.4 333,726.2 448.8,793 564.5,726.2 	"/>
</g>
<g>
	<polygon class="st11" points="448.4,525.4 448.3,659.1 564.1,725.9 564.2,592.3 	"/>
</g>
<g>
	<polygon class="st12" points="679.9,525.4 679.9,659.1 564.1,725.9 564.2,592.3 	"/>
</g>
<g>
	<polygon class="st17" points="534.2,504 534.2,504 534.2,504 577.9,492.1 615.6,519.5 603.4,544 603.4,544 603.4,544 561,551 
		513.4,529.3 	"/>
	<polygon class="st18" points="534.2,504 541.9,508.5 541.8,508.4 576.9,528.7 576.9,528.7 603.4,544 603.4,544 561,551 
		513.4,529.3 	"/>
	<path class="st16" d="M541.8,508.4l65.3,14.4l0,0l-7.5,4.3l0,0l-14.2-3.5l-17.1,9.9l6.1,8.2l0,0l-7.5,4.3l0,0L541.8,508.4
		L541.8,508.4L541.8,508.4L541.8,508.4L541.8,508.4z M564.8,528.5l11.8-6.8l-20-4.8L564.8,528.5z"/>
</g>
<g>
	<polygon class="st19" points="454.4,721.8 454.4,703.9 466.6,696.9 577.5,762.6 579.6,783.2 549.1,796.8 537.1,787.3 	"/>
	<polygon class="st21" points="669.3,698.3 679.1,703.9 679.1,719.2 565.5,793 564.3,763.3 	"/>
	<path class="st20" d="M551.4,777c0,1.9,9.9,118.3,9.9,118.3l5.1,3.1l10.4-5.8l2.8-134.4l-22.6-5.6L551.4,777z"/>
	<g>
		<polygon class="st19" points="566.8,639.1 454.4,703.9 566.8,768.8 679.1,703.9 		"/>
	</g>
	<g>
		<polygon class="st20" points="454.4,703.9 454.3,833.6 566.7,898.5 566.8,768.8 		"/>
	</g>
	<g>
		<polygon class="st21" points="679.1,703.9 679.1,833.6 566.7,898.5 566.8,768.8 		"/>
	</g>
	<g>
		<path class="st16" d="M530.1,724.9c-1-0.6-1.7-1.3-2-2l-3.6-8.1c-0.6-1.2,0.3-1,0.9-0.8c2.4,0.7,2.9,0.8,5.8,1.3
			c0.3,0,0.5,0.2,0.6,0.4l2.8,6.2c0.1,0.2,0.5,0.4,0.8,0.5l41.7,6.5c0.4,0.1,0.8,0,1.1-0.2l30.5-17.6c0.3-0.2,0.4-0.4,0.3-0.7
			l-11.2-24.1c-0.1-0.2-0.4-0.4-0.8-0.5l-41.7-6.5c-0.4-0.1-0.9,0-1.1,0.2l-30.5,17.6c-0.3,0.2-0.4,0.4-0.3,0.6l3.1,6.6
			c2,3.4,6.7,3.5,9,2.1l30.1-17.4c0.4-0.2,1.1-0.2,1.5,0l3.4,1.9c0.4,0.2,0.4,0.6,0,0.9l-30.1,17.4c-5.2,3-11.1,3.1-16.1,0.2
			c-1.5-0.9-2.7-1.6-4.4-4.5l-2.9-6.3c-0.7-1.6,0.1-3.2,2.1-4.4l30.5-17.6c2-1.1,4.9-1.6,7.6-1.2l41.7,6.4c2.6,0.4,4.8,1.7,5.6,3.2
			l11.2,24.1c0.7,1.6-0.1,3.2-2,4.4l-30.5,17.6c-2,1.1-4.9,1.6-7.6,1.2l-41.7-6.5C532.3,725.9,531.1,725.5,530.1,724.9z"/>
		<path class="st16" d="M559.3,717.5c-11.6-6.7-8.7-11.1-4.2-13.7c0.4-0.2,1.1-0.2,1.5,0l3.4,2c0.4,0.2,0.4,0.6,0.1,0.8
			c-3,2.3-3.2,4.2,3.8,8.3c5.6,3.2,9.2,3.9,12.2,2.2c1.7-1,2.3-2.1-5.5-7.6c-6.5-4.6-9.4-8.1-3.6-11.4c5.3-3.1,13-2.3,20.6,2
			c8.5,4.9,9.7,9,3.9,13c-0.2,0.1-0.5,0.2-0.8,0.2c-0.3,0-0.6-0.1-0.8-0.2l-3.4-2c-0.4-0.2-0.4-0.5-0.1-0.8c2.8-2.6,2-4.4-3.4-7.6
			c-6.1-3.5-8.9-2.7-10.5-1.8c-1.9,1.1-1.6,1.9,5.5,7.3c7.1,5.3,9.4,8.4,3.7,11.7C575.8,723.2,567.7,722.3,559.3,717.5z"/>
	</g>
</g>
<g>
	<polygon class="st19" points="566.6,639.1 454.3,703.9 566.6,768.8 679,703.9 	"/>
</g>
<g>
	<linearGradient id="SVGID_4_" gradientUnits="userSpaceOnUse" x1="-369.3944" y1="1107.6536" x2="2313.9604" y2="426.3632">
		<stop  offset="0.269" style="stop-color:#FFFFFF;stop-opacity:0"/>
		<stop  offset="0.2906" style="stop-color:#F0F0F0;stop-opacity:3.545529e-02"/>
		<stop  offset="0.3859" style="stop-color:#B1B1B1;stop-opacity:0.1919"/>
		<stop  offset="0.4803" style="stop-color:#7B7B7B;stop-opacity:0.3468"/>
		<stop  offset="0.5714" style="stop-color:#4F4F4F;stop-opacity:0.4963"/>
		<stop  offset="0.6585" style="stop-color:#2D2D2D;stop-opacity:0.6394"/>
		<stop  offset="0.7408" style="stop-color:#141414;stop-opacity:0.7744"/>
		<stop  offset="0.8161" style="stop-color:#050505;stop-opacity:0.8981"/>
		<stop  offset="0.8782" style="stop-color:#000000"/>
	</linearGradient>
	<polygon class="st24" points="454.4,833.6 342.1,898.5 454.4,963.3 566.8,898.5 	"/>
</g>
<g>
	<linearGradient id="SVGID_5_" gradientUnits="userSpaceOnUse" x1="-684.1314" y1="973.9493" x2="1999.2234" y2="292.659">
		<stop  offset="0.269" style="stop-color:#FFFFFF;stop-opacity:0"/>
		<stop  offset="0.2906" style="stop-color:#F0F0F0;stop-opacity:3.545529e-02"/>
		<stop  offset="0.3859" style="stop-color:#B1B1B1;stop-opacity:0.1919"/>
		<stop  offset="0.4803" style="stop-color:#7B7B7B;stop-opacity:0.3468"/>
		<stop  offset="0.5714" style="stop-color:#4F4F4F;stop-opacity:0.4963"/>
		<stop  offset="0.6585" style="stop-color:#2D2D2D;stop-opacity:0.6394"/>
		<stop  offset="0.7408" style="stop-color:#141414;stop-opacity:0.7744"/>
		<stop  offset="0.8161" style="stop-color:#050505;stop-opacity:0.8981"/>
		<stop  offset="0.8782" style="stop-color:#000000"/>
	</linearGradient>
	<polygon class="st25" points="139.7,699.9 27.4,764.8 139.7,829.6 252,764.8 	"/>
</g>
<g>
	<polygon class="st20" points="454.3,703.9 454.2,833.6 566.6,898.5 566.6,768.8 	"/>
</g>
<g>
	<polygon class="st21" points="679,703.9 679,833.6 566.6,898.5 566.6,768.8 	"/>
</g>
<g>
	<path class="st16" d="M530,724.9c-1-0.6-1.7-1.3-2-2l-3.6-8.1c-0.6-1.2,0.3-1,0.9-0.8c2.4,0.7,2.9,0.8,5.8,1.3
		c0.3,0,0.5,0.2,0.6,0.4l2.8,6.2c0.1,0.2,0.5,0.4,0.8,0.5l41.7,6.5c0.4,0.1,0.8,0,1.1-0.2l30.5-17.6c0.3-0.2,0.4-0.4,0.3-0.7
		l-11.2-24.1c-0.1-0.2-0.4-0.4-0.8-0.5l-41.7-6.5c-0.4-0.1-0.9,0-1.1,0.2l-30.5,17.6c-0.3,0.2-0.4,0.4-0.3,0.6l3.1,6.6
		c2,3.4,6.7,3.5,9,2.1l30.1-17.4c0.4-0.2,1.1-0.2,1.5,0l3.4,1.9c0.4,0.2,0.4,0.6,0,0.9l-30.1,17.4c-5.2,3-11.1,3.1-16.1,0.2
		c-1.5-0.9-2.7-1.6-4.4-4.5l-2.9-6.3c-0.7-1.6,0.1-3.2,2.1-4.4l30.5-17.6c2-1.1,4.9-1.6,7.6-1.2l41.7,6.4c2.6,0.4,4.8,1.7,5.6,3.2
		l11.2,24.1c0.7,1.6-0.1,3.2-2,4.4l-30.5,17.6c-2,1.1-4.9,1.6-7.6,1.2l-41.7-6.5C532.2,725.9,530.9,725.5,530,724.9z"/>
	<path class="st16" d="M559.2,717.5c-11.6-6.7-8.7-11.1-4.2-13.7c0.4-0.2,1.1-0.2,1.5,0l3.4,2c0.4,0.2,0.4,0.6,0.1,0.8
		c-3,2.3-3.2,4.2,3.8,8.3c5.6,3.2,9.2,3.9,12.2,2.2c1.7-1,2.3-2.1-5.5-7.6c-6.5-4.6-9.4-8.1-3.6-11.4c5.3-3.1,13-2.3,20.6,2
		c8.5,4.9,9.7,9,3.9,13c-0.2,0.1-0.5,0.2-0.8,0.2c-0.3,0-0.6-0.1-0.8-0.2l-3.4-2c-0.4-0.2-0.4-0.5-0.1-0.8c2.8-2.6,2-4.4-3.4-7.6
		c-6.1-3.5-8.9-2.7-10.5-1.8c-1.9,1.1-1.6,1.9,5.5,7.3c7.1,5.3,9.4,8.4,3.7,11.7C575.7,723.2,567.5,722.3,559.2,717.5z"/>
</g>
<path class="st19" d="M704.8,450.9l-0.2-4.9l8.4-4.6l117.1,66.3l-4.1,9.2l-21.4,13.6c0,0-37.9-21.4-48.6-27.2s-46.7-41.8-46.7-41.8
	L704.8,450.9z"/>
<polygon class="st21" points="808.2,505.9 808.2,639.9 820.2,647.2 832.8,640.1 830.2,507.7 814.4,499.4 "/>
<polygon class="st21" points="816.4,500.4 803.7,513 811.5,535.4 860.1,509.1 936.8,467.9 936.8,446.2 810.5,480 "/>
<g>
	<polygon class="st19" points="820.8,379.2 704.8,446.2 820.8,513.2 936.8,446.2 	"/>
</g>
<g>
	<linearGradient id="SVGID_6_" gradientUnits="userSpaceOnUse" x1="232.5638" y1="872.7615" x2="1904.6293" y2="73.6015">
		<stop  offset="0.198" style="stop-color:#FFFFFF;stop-opacity:0"/>
		<stop  offset="0.2516" style="stop-color:#E7E7E7;stop-opacity:8.190989e-02"/>
		<stop  offset="0.4762" style="stop-color:#858585;stop-opacity:0.4249"/>
		<stop  offset="0.6578" style="stop-color:#3D3D3D;stop-opacity:0.7022"/>
		<stop  offset="0.7874" style="stop-color:#111111;stop-opacity:0.9002"/>
		<stop  offset="0.8528" style="stop-color:#000000"/>
	</linearGradient>
	<polygon class="st26" points="704.1,580.4 588.1,647.4 704.1,714.4 820.1,647.4 	"/>
</g>
<g>
	<polygon class="st20" points="704.8,446.2 704.6,580.1 820.7,647.1 820.8,513.2 	"/>
</g>
<g>
	<polygon class="st21" points="936.8,446.2 936.8,580.1 820.7,647.1 820.8,513.2 	"/>
</g>
<path class="st22" d="M885,586.2l-1.9,0.3c0,0,0.2-11.2-3.2-10c-2.3-1.7,0.4-130,8.6-5.4c0,0-2.8,3.3-3.3,6.4
	C884.6,580.6,885,586.2,885,586.2L885,586.2z"/>
<path class="st22" d="M886,574.9c0,0,16.4-21.9,12.6-45.6c-3.7-16.7-12.4-17.8-13.4-19.6c-1.1-1.1-2.1-3.5-2.1-3.5l0.7,52
	C883.8,558.3,882.4,575.1,886,574.9"/>
<path class="st22" d="M882.2,577.8c0,0-15.4-3.2-14.5-25.1c0.9-21.9,11.7-38.6,13.8-41.7c1.4-2.5,1.4-3.1,1.5-4.9
	c1,1.8,0.8,35,0.9,38.9C884.3,559.8,883.2,574.4,882.2,577.8z"/>
</svg>
