<?xml version="1.0" encoding="utf-8"?>
<!-- Generator: Adobe Illustrator 23.0.2, SVG Export Plug-In . SVG Version: 6.00 Build 0)  -->
<svg version="1.1" id="Capa_1" xmlns="http://www.w3.org/2000/svg" xmlns:xlink="http://www.w3.org/1999/xlink" x="0px" y="0px"
	 viewBox="0 0 1080 1080" style="enable-background:new 0 0 1080 1080;" xml:space="preserve">
<style type="text/css">
	.st0{fill:url(#SVGID_1_);}
	.st1{fill:url(#SVGID_2_);}
	.st2{fill:#F7E018;}
	.st3{fill:#FAEC74;}
	.st4{fill:#FBF2A2;}
	.st5{fill:#FF3257;}
	.st6{fill:#78B886;}
	.st7{fill:#4AA15E;}
	.st8{fill:#FF6681;}
	.st9{fill:#1E8A36;}
	.st10{fill:#FFFFFF;}
	.st11{fill:url(#SVGID_3_);}
	.st12{fill-rule:evenodd;clip-rule:evenodd;fill:#FFFFFF;}
	.st13{fill:#5B6B7B;}
	.st14{fill:#99A3AD;}
	.st15{fill:#33475B;}
	.st16{fill:#4DBA87;}
	.st17{fill:#435466;}
	.st18{fill:#92E5FF;}
	.st19{fill:#4AD5FF;}
	.st20{fill:#B6EEFF;}
	.st21{fill:#FF002E;}
	.st22{fill:#DD0031;}
	.st23{fill:#C3002F;}
</style>
<g>
	<linearGradient id="SVGID_1_" gradientUnits="userSpaceOnUse" x1="153.8499" y1="874.1741" x2="387.6563" y2="502.5612">
		<stop  offset="0.1168" style="stop-color:#FFFFFF;stop-opacity:0"/>
		<stop  offset="0.2516" style="stop-color:#E7E7E7;stop-opacity:8.190989e-02"/>
		<stop  offset="0.4762" style="stop-color:#858585;stop-opacity:0.4249"/>
		<stop  offset="0.6578" style="stop-color:#3D3D3D;stop-opacity:0.7022"/>
		<stop  offset="0.7874" style="stop-color:#111111;stop-opacity:0.9002"/>
		<stop  offset="0.8528" style="stop-color:#000000"/>
	</linearGradient>
	<polygon class="st0" points="250.1,652.2 130.8,721.1 250.1,790 369.5,721.1 	"/>
</g>
<g>
	<linearGradient id="SVGID_2_" gradientUnits="userSpaceOnUse" x1="390.5914" y1="1005.3755" x2="579.8817" y2="761.5045">
		<stop  offset="0.1168" style="stop-color:#FFFFFF;stop-opacity:0"/>
		<stop  offset="0.2516" style="stop-color:#E7E7E7;stop-opacity:8.190989e-02"/>
		<stop  offset="0.4762" style="stop-color:#858585;stop-opacity:0.4249"/>
		<stop  offset="0.6578" style="stop-color:#3D3D3D;stop-opacity:0.7022"/>
		<stop  offset="0.7874" style="stop-color:#111111;stop-opacity:0.9002"/>
		<stop  offset="0.8528" style="stop-color:#000000"/>
	</linearGradient>
	<polygon class="st1" points="464,841.9 344.6,910.8 464,979.7 583.3,910.8 	"/>
</g>
<g>
	<g>
		<polygon class="st2" points="250.2,528.1 250.2,514.4 364.8,533.9 382.8,561.9 389.8,594.9 347.8,608.9 298.8,592.9 281.8,573.9 
					"/>
		<path class="st3" d="M363.8,573.9c0,0-1,18,0,19s24.1,6.6,24.1,6.6s7.9-14.6,23.9-19.6s38-22,46-24s31-22.5,31-22.5v-19.5
			l-10.5-5.7l-116.9,59.7L363.8,573.9z"/>
		<path class="st3" d="M343.8,576.9l19,34v106.3l7,3.7l13-7.6c0,0,4-120.4,5-124.4s-5.7-12-5.7-12l-14.3-10l-22.9,2.1L343.8,576.9z"
			/>
		<g>
			<polygon class="st2" points="250.2,514.4 250,652.2 369.4,721.1 369.5,583.3 			"/>
		</g>
		<g>
			<polygon class="st3" points="488.9,514.4 488.9,652.2 369.4,721.1 369.5,583.3 			"/>
		</g>
		<path d="M299.2,658.1c1.9,5.8,5.7,12,12.3,15.7c7.3,4.2,12.2,2.6,12.2-7.2v-32.3l-8.2-4.7v32.2c0,4.7-1.7,5-4.4,3.4
			c-2.8-1.6-4-4.5-5.3-7.9L299.2,658.1 M328.2,673.8c2.4,6.9,7.3,13.9,14.9,18.3c7.8,4.5,13.6,3.2,13.6-5.3
			c0-7.9-3.9-13.7-10.9-21.2l-2-2.2c-3.5-3.8-5-5.8-5-8.7c0-2.3,1.5-3.2,3.9-1.8c2.3,1.4,3.9,3.4,5.3,7.1l6.4-1
			c-2.7-7-6.4-11.3-11.6-14.3c-7.3-4.2-12-1.5-12,5.6c0,7.7,3.9,13.6,9.8,19.9l2,2.2c3.7,4.1,6,6.5,6,9.7c0,2.7-2.2,3.4-5.6,1.5
			c-4-2.3-6.3-6.1-8.1-10.4L328.2,673.8"/>
	</g>
	<g>
		<polygon class="st4" points="369.5,445.5 250.2,514.4 369.5,583.3 488.9,514.4 		"/>
	</g>
</g>
<path class="st5" d="M570.2,755.7l-6.2,51.8l49.5-16.5c0,0,27.8-19.5,36-24.2s53.3-29.4,53.3-29.4v-33.3L679,690.4l-77.9,58.5
	L570.2,755.7z"/>
<path class="st6" d="M602.6,492l-0.2-5l8.7-4.7l120.5,68.2l-4.2,9.5l-22,14c0,0-39-22-50-28s-48-43-48-43L602.6,492z"/>
<polygon class="st7" points="709.1,548.7 709.1,686.6 721.4,694 734.3,686.8 731.6,550.5 715.4,542 "/>
<polygon class="st7" points="717.4,543 704.4,556 712.4,579 762.4,552 841.3,509.6 841.3,487.2 711.4,522 "/>
<polygon class="st8" points="464,704 471,700.1 592.1,768 591,778 582,791 543,777 466,714 "/>
<polygon class="st5" points="583,760 570.2,765.4 570.2,903.3 583,911 594,904.6 "/>
<g>
	<polygon class="st6" points="230.7,384.1 230.8,365.1 243.7,357.7 361.5,427.4 363.8,449.3 331.4,463.8 318.6,453.7 	"/>
	<polygon class="st7" points="459,359.1 469.5,365.1 469.5,381.3 348.8,459.7 347.5,428.2 	"/>
	<path class="st9" d="M333.8,442.8c0,2,10.5,125.8,10.5,125.8l5.5,3.2l11.1-6.2l2.9-142.8l-24-6L333.8,442.8z"/>
	<g>
		<polygon class="st6" points="350.1,296.2 230.8,365.1 350.1,434 469.5,365.1 		"/>
	</g>
	<g>
		<polygon class="st9" points="230.8,365.1 230.6,502.9 350,571.8 350.1,434 		"/>
	</g>
	<g>
		<polygon class="st7" points="469.5,365.1 469.5,502.9 350,571.8 350.1,434 		"/>
	</g>
	<g>
		<path class="st10" d="M311.2,387.4c-1-0.6-1.8-1.3-2.2-2.2l-3.8-8.6c-0.6-1.3,0.3-1,1-0.9c2.5,0.7,3,0.8,6.2,1.3
			c0.3,0.1,0.6,0.2,0.6,0.4l2.9,6.6c0.1,0.2,0.5,0.4,0.9,0.5l44.3,6.9c0.4,0.1,0.9,0,1.2-0.2l32.4-18.7c0.3-0.2,0.4-0.5,0.3-0.7
			l-11.9-25.6c-0.1-0.2-0.5-0.4-0.9-0.5l-44.3-6.9c-0.4-0.1-0.9,0-1.2,0.2l-32.4,18.7c-0.3,0.2-0.4,0.4-0.3,0.7l3.3,7
			c2.1,3.6,7.1,3.7,9.6,2.2l32-18.5c0.5-0.3,1.2-0.3,1.6,0l3.6,2.1c0.4,0.3,0.5,0.7,0,0.9l-32,18.5c-5.6,3.2-11.8,3.3-17.1,0.3
			c-1.6-0.9-2.9-1.7-4.7-4.8l-3.1-6.7c-0.8-1.7,0.1-3.4,2.2-4.7l32.4-18.7c2.1-1.2,5.2-1.7,8.1-1.3l44.3,6.8
			c2.8,0.4,5.1,1.8,5.9,3.4l11.9,25.6c0.8,1.7-0.1,3.4-2.2,4.7l-32.4,18.7c-2.1,1.2-5.2,1.7-8.1,1.3l-44.3-6.9
			C313.5,388.4,312.2,388,311.2,387.4z"/>
		<path class="st10" d="M342.2,379.5c-12.3-7.1-9.2-11.8-4.5-14.6c0.5-0.3,1.2-0.3,1.6,0l3.6,2.1c0.4,0.2,0.5,0.6,0.1,0.9
			c-3.2,2.5-3.4,4.5,4.1,8.8c5.9,3.4,9.8,4.1,12.9,2.3c1.8-1,2.4-2.2-5.9-8.1c-6.9-4.9-10-8.6-3.8-12.2c5.7-3.3,13.8-2.5,21.8,2.2
			c9,5.2,10.3,9.6,4.2,13.8c-0.2,0.1-0.5,0.2-0.8,0.2s-0.6-0.1-0.9-0.2l-3.6-2.1c-0.4-0.2-0.4-0.6-0.2-0.8c3-2.8,2.1-4.7-3.6-8
			c-6.5-3.7-9.5-2.9-11.2-1.9c-2,1.2-1.8,2,5.8,7.7c7.5,5.6,10,8.9,3.9,12.5C359.7,385.6,351.1,384.6,342.2,379.5z"/>
	</g>
</g>
<g>
	<polygon class="st6" points="721.9,418.3 602.6,487.2 721.9,556.1 841.3,487.2 	"/>
</g>
<g>
	<linearGradient id="SVGID_3_" gradientUnits="userSpaceOnUse" x1="500.4052" y1="846.0639" x2="747.3729" y2="476.7736">
		<stop  offset="0.1168" style="stop-color:#FFFFFF;stop-opacity:0"/>
		<stop  offset="0.2516" style="stop-color:#E7E7E7;stop-opacity:8.190989e-02"/>
		<stop  offset="0.4762" style="stop-color:#858585;stop-opacity:0.4249"/>
		<stop  offset="0.6578" style="stop-color:#3D3D3D;stop-opacity:0.7022"/>
		<stop  offset="0.7874" style="stop-color:#111111;stop-opacity:0.9002"/>
		<stop  offset="0.8528" style="stop-color:#000000"/>
	</linearGradient>
	<polygon class="st11" points="601.9,625.3 482.6,694.2 601.9,763.1 721.3,694.2 	"/>
</g>
<g>
	<polygon class="st9" points="602.6,487.2 602.4,625 721.8,693.9 721.9,556.1 	"/>
</g>
<g>
	<polygon class="st7" points="841.3,487.2 841.3,625 721.8,693.9 721.9,556.1 	"/>
</g>
<path class="st12" d="M788,631.2l-1.9,0.4c0,0,0.2-11.5-3.3-10.3c-2.3-1.8,0.4-133.7,8.8-5.5c0,0-2.9,3.4-3.4,6.5
	C787.6,625.5,788,631.2,788,631.2L788,631.2z"/>
<path class="st12" d="M789,619.6c0,0,16.9-22.5,12.9-46.9c-3.8-17.2-12.8-18.3-13.8-20.2c-1.1-1.1-2.1-3.6-2.1-3.6l0.7,53.5
	C786.8,602.4,785.3,619.7,789,619.6"/>
<path class="st12" d="M785.1,622.7c0,0-15.8-3.3-14.9-25.9c0.9-22.5,12.1-39.7,14.2-42.9c1.4-2.6,1.5-3.2,1.6-5
	c1,1.9,0.8,36.1,0.9,40C787.3,604.1,786.2,619.1,785.1,622.7z"/>
<g>
	<polygon class="st13" points="789.5,368.2 792,389.1 864.3,352.8 864.3,336.6 844.6,325.2 	"/>
	<polygon class="st13" points="704.8,520.2 744.9,543.3 766.2,531 756,376 680.9,380.6 688.6,471.9 	"/>
	<g>
		<polygon class="st14" points="745,267.7 625.6,336.6 745,405.5 864.3,336.6 		"/>
	</g>
	<g>
		<polygon class="st15" points="625.6,336.6 625.4,474.4 744.9,543.3 745,405.5 		"/>
	</g>
	<g>
		<polygon class="st13" points="864.3,336.6 864.3,474.4 744.9,543.3 745,405.5 		"/>
	</g>
	<path class="st16" d="M813.7,411.2l-8.1,20.9l-8.1-11.5l-27,15.6l35.1,49.9l35.1-90.4L813.7,411.2z"/>
	<path class="st17" d="M813.7,411.2l-8.1,20.9l-8.1-11.5l-12.9,7.5l21,29.9l21-54.2L813.7,411.2z"/>
</g>
<g>
	<path class="st18" d="M686.7,276.4l-1.9,35c0,0,69.9-22.6,72.1-23.4s65.6-50.7,65.6-50.7v-12.2l-13.6-7.9l-102.1,21.7L686.7,276.4z
		"/>
	<path class="st19" d="M686.7,421.3c0.1,0,0-148,0-148l32.5,3.3l2.3,97l-7.6,50.9l-10.8,6.2L686.7,421.3z"/>
	<path class="st20" d="M583.8,236.2c0,2.3,119.3,70.8,119.3,70.8l16.1-6.7l-10.1-35.9l-89.4-42.6l-30,3.8L583.8,236.2z"/>
	<g>
		<polygon class="st20" points="703.1,156.2 583.8,225.1 703.1,294 822.5,225.1 		"/>
	</g>
	<g>
		<polygon class="st19" points="583.8,225.1 583.6,362.9 703.1,431.8 703.1,294 		"/>
	</g>
	<g>
		<polygon class="st18" points="822.5,225.1 822.5,362.9 703.1,431.8 703.1,294 		"/>
	</g>
	<g>
		<path class="st10" d="M791.8,301c-0.8,0.1-1.6,0.3-2.4,0.5c0.1-0.7,0.3-1.4,0.4-2.1c1.8-11.2,0.6-18.7-3.4-19.1
			c-3.9-0.3-10.2,6-16.6,16.2c-0.6,1-1.2,2-1.9,3c-0.4-0.2-0.8-0.4-1.2-0.6c-6.7-3-13.5-2-17.5,3c-3.9,4.8-5,13.2-3.4,21.9
			c0.2,0.9,0.3,1.7,0.6,2.5c-1,0.9-1.9,1.7-2.8,2.6c-7.9,7.7-12.9,15.6-12.9,20.7c0,5.3,5.4,7.5,13.6,6c0.7-0.1,1.3-0.3,2-0.4
			c-0.2,1.1-0.4,2.3-0.6,3.4c-1.6,10.4-0.3,17.2,3.5,17.5c4,0.4,10.7-6.3,17.2-16.6c0.5-0.8,1-1.7,1.6-2.5c0.7,0.3,1.3,0.7,2,1
			c6.3,2.6,12.6,1.6,16.4-3.3c4-5,5.3-13.8,3.6-22.6c-0.1-0.7-0.3-1.4-0.4-2c0.5-0.4,0.9-0.9,1.4-1.3c8.5-8.2,14.1-16.7,14.1-22.1
			C805,301.5,799.8,299.5,791.8,301z M771.8,298c5.5-8.7,10.6-13.8,13-13.6c2.5,0.2,3.5,6.4,1.9,16c-0.1,0.6-0.2,1.3-0.3,1.9
			c-3.1,1-6.4,2.3-9.9,3.9c-2-2.2-4.2-4-6.3-5.4C770.6,299.9,771.2,299,771.8,298z M752.5,341.4c0.7,1.1,1.4,2.2,2.1,3.2
			c0.7,1.1,1.5,2.1,2.3,3.1c-2.4,1.1-4.7,2-6.9,2.7C750.8,347.5,751.6,344.5,752.5,341.4z M752.5,332.7c-0.9-2-1.7-4-2.4-6.1
			c2.1-1.8,4.4-3.5,6.7-5.2c-0.8,1.9-1.5,3.8-2.3,5.6C753.9,329,753.2,330.9,752.5,332.7z M754.2,336.1c1-2.9,2-5.8,3.2-8.8
			c1.1-2.9,2.3-5.8,3.6-8.7c2.2-1.5,4.5-2.9,6.8-4.2c2.3-1.3,4.6-2.5,6.8-3.6c1.3,1.4,2.5,2.9,3.6,4.5c1.1,1.6,2.2,3.3,3.2,5
			c-1,2.9-2.1,5.9-3.2,8.8c-1.1,2.9-2.3,5.8-3.6,8.7c-2.2,1.5-4.5,2.9-6.8,4.2c-2.3,1.3-4.6,2.6-6.7,3.6c-1.3-1.4-2.5-2.9-3.6-4.6
			C756.3,339.6,755.2,337.9,754.2,336.1z M780.9,329.4c0.7-1.9,1.5-3.9,2.2-5.8c1,2,1.8,4.1,2.5,6.1c-2.2,1.8-4.5,3.6-6.9,5.4
			C779.4,333.2,780.2,331.3,780.9,329.4z M783,315.1c-0.7-1.1-1.4-2.2-2.1-3.2s-1.5-2-2.3-3c2.4-1,4.6-1.9,6.8-2.5
			C784.8,309.1,784,312.1,783,315.1z M767.8,304.7c1.5,1,2.9,2.2,4.4,3.6c-2.9,1.5-5.9,3.2-8.8,5.1
			C764.8,310.4,766.3,307.5,767.8,304.7z M750.7,304.2c2.5-3.1,8-3.9,13.8-1.3c0.4,0.2,0.7,0.4,1.1,0.5c-2.2,3.9-4.3,8.2-6.3,12.7
			c-3.5,2.4-6.8,4.9-9.9,7.5c-0.2-0.8-0.4-1.6-0.5-2.4C747.4,313.8,748.3,307.1,750.7,304.2z M747,351.2c-0.6,0.2-1.2,0.3-1.8,0.4
			c-3.6,0.7-6.6,0.5-8.7-0.3c-1.8-0.8-2.8-2-2.8-3.5c0-3.1,4-9.4,10.8-16.1c0.8-0.8,1.7-1.6,2.6-2.4c0.9,3,2.2,5.9,3.6,8.8
			C749.2,342.7,748,347.2,747,351.2z M764.3,358c-2.9,4.6-5.8,8.3-8.3,10.8c-2.3,2.3-4.1,3.3-5.2,3.2c-2.3-0.2-3.3-5.7-2-14.5
			c0.2-1,0.3-2.1,0.5-3.2c3-1,6.4-2.4,10-4.1c2.1,2.2,4.2,4,6.4,5.4C765.2,356.5,764.8,357.3,764.3,358z M767.9,351.8
			c-1.5-1-3-2.2-4.5-3.6c1.4-0.8,2.9-1.6,4.4-2.4c1.5-0.9,3-1.8,4.5-2.7C770.8,346.2,769.4,349.1,767.9,351.8z M787.2,345.7
			c-0.4,3-1.3,5.4-2.4,6.7c-2.3,2.9-7.4,3.8-12.8,1.5c-0.6-0.3-1.2-0.6-1.9-0.9c2.1-3.9,4.2-8.1,6.2-12.7c3.6-2.4,7-5,10.1-7.6
			c0.2,0.6,0.3,1.2,0.4,1.8C787.6,338.5,787.7,342.4,787.2,345.7z M789.9,325.9c-0.4,0.4-0.8,0.8-1.2,1.2c-0.9-2.9-2.2-5.8-3.8-8.7
			c1.5-4.5,2.7-8.9,3.6-12.8c0.8-0.2,1.5-0.3,2.2-0.5c6.9-1.2,11.1,0.4,11.1,3.5C801.8,311.9,797.3,318.8,789.9,325.9z"/>
		<path class="st10" d="M767.8,335.9c3.7-2.1,6.6-7.3,6.6-11.5s-3-6-6.6-3.8c-3.7,2.1-6.6,7.3-6.6,11.5S764.1,338,767.8,335.9z"/>
	</g>
</g>
<g>
	<polygon class="st8" points="583.4,635.2 464,704.1 583.4,773 702.7,704.1 	"/>
</g>
<g>
	<polygon class="st21" points="464,704.1 463.9,841.9 583.3,910.8 583.4,773 	"/>
</g>
<g>
	<polygon class="st5" points="702.7,704.1 702.7,841.9 583.3,910.8 583.4,773 	"/>
</g>
<g>
	<polygon class="st22" points="552.5,682 552.5,682 552.5,682 597.6,669.7 636.4,698 623.9,723.3 623.9,723.3 623.9,723.3 
		580.1,730.5 531.1,708.1 	"/>
	<polygon class="st23" points="552.5,682 560.4,686.6 560.4,686.6 596.5,707.5 596.5,707.5 623.9,723.3 623.9,723.3 580.1,730.5 
		531.1,708.1 	"/>
	<path class="st10" d="M560.4,686.6l67.4,14.9l0,0L620,706l0,0l-14.6-3.6l-17.6,10.2l6.2,8.4l0,0l-7.7,4.5l0,0L560.4,686.6
		L560.4,686.6L560.4,686.6L560.4,686.6L560.4,686.6z M584,707.3l12.1-7l-20.7-4.9L584,707.3z"/>
</g>
</svg>
