<?xml version="1.0" encoding="utf-8"?>
<!-- Generator: Adobe Illustrator 23.0.2, SVG Export Plug-In . SVG Version: 6.00 Build 0)  -->
<svg version="1.1" id="Capa_1" xmlns="http://www.w3.org/2000/svg" xmlns:xlink="http://www.w3.org/1999/xlink" x="0px" y="0px"
	 viewBox="0 0 966 244" style="enable-background:new 0 0 966 244;" xml:space="preserve">
<g>
	<polygon points="625.8,77.8 611.2,32.3 590.5,32.3 590.5,97.8 606.3,97.8 606.3,82.5 604.7,51.1 620.6,97.8 631,97.8 646.9,51.2 
		645.4,82.5 645.4,97.8 661.2,97.8 661.2,32.3 640.4,32.3 	"/>
	<path d="M693.7,98.7c4,0,7.7-0.8,11.2-2.3c3.5-1.5,6.1-3.6,8-6.2l-6.9-8.2c-2.7,3.4-6.4,5-11.3,5c-2.9,0-5.3-0.8-7.1-2.3
		c-1.8-1.6-3-3.7-3.6-6.4h30.1v-5.9c0-7.6-2-13.5-5.9-17.7c-4-4.2-9.4-6.4-16.2-6.4c-4.9,0-9.1,1-12.6,3.1c-3.5,2.1-6.2,5-8.1,8.8
		c-1.8,3.8-2.8,8.2-2.8,13.2v1.3c0,7.1,2.3,12.9,6.9,17.4C680.2,96.4,686.2,98.7,693.7,98.7z M692,59.9c2.4,0,4.2,0.7,5.5,2
		c1.3,1.3,1.9,3.2,1.8,5.6v1.2h-15.3C684.9,62.8,687.6,59.9,692,59.9z"/>
	<path d="M735.2,66.9c1.3-3,4.4-4.5,9.2-4.5l5,0.4l0.3-14.1c-1.2-0.4-2.6-0.5-4.2-0.5c-4.6,0-8.1,2.4-10.7,7.2l-0.5-6.3h-14.2v48.7
		h15.2V66.9z"/>
	<path d="M771.7,98.7c4.4,0,8.1-1.6,11-4.8v1.5c0,6.9-3.4,10.3-10.1,10.3c-4.6,0-8.3-1.7-11.2-5l-6.3,8.9c1.8,2.2,4.3,3.9,7.7,5.3
		c3.3,1.3,6.8,2,10.4,2c5,0,9.4-0.8,13.1-2.5c3.8-1.7,6.7-4.1,8.7-7.3c2-3.2,3-6.9,3-11.2V49.1h-13.8l-0.5,4.2
		c-2.9-3.4-6.8-5.1-11.9-5.1c-4,0-7.5,1-10.6,3.1c-3,2.1-5.4,5-7,8.7c-1.6,3.8-2.4,8.1-2.4,13v0.5c0,7.6,1.8,13.7,5.5,18.2
		C761,96.4,765.8,98.7,771.7,98.7z M769.4,63.5c1.5-2.4,3.6-3.6,6.3-3.6c3.2,0,5.6,1.1,7.1,3.3v20.5c-1.5,2.2-3.9,3.3-7.2,3.3
		c-2.7,0-4.8-1.2-6.3-3.5c-1.5-2.3-2.3-5.5-2.3-9.5C767.1,69.4,767.8,65.9,769.4,63.5z"/>
	<path d="M849,90.1l-6.9-8.2c-2.7,3.4-6.4,5-11.3,5c-2.9,0-5.3-0.8-7.1-2.3c-1.8-1.6-3-3.7-3.6-6.4h30.1v-5.9c0-7.6-2-13.5-5.9-17.7
		c-4-4.2-9.4-6.4-16.2-6.4c-4.9,0-9.1,1-12.6,3.1c-3.5,2.1-6.2,5-8.1,8.8c-1.8,3.8-2.8,8.2-2.8,13.2v1.3c0,7.1,2.3,12.9,6.9,17.4
		c4.6,4.5,10.7,6.7,18.1,6.7c4,0,7.7-0.8,11.2-2.3C844.5,94.8,847.1,92.7,849,90.1z M828.1,59.9c2.4,0,4.2,0.7,5.5,2
		c1.3,1.3,1.9,3.2,1.8,5.6v1.2h-15.3C821,62.8,823.7,59.9,828.1,59.9z"/>
	<path d="M642.2,149.8h-12.7c0,3.9-0.8,7.5-2.5,10.8l-10.1-11.6l3.4-2.4c6.2-4.3,9.2-9.3,9.2-14.8c0-4.5-1.6-8.2-4.9-11.2
		c-3.2-3-7.3-4.5-12.3-4.5c-5.5,0-10,1.6-13.4,4.9c-3.4,3.3-5.1,7.5-5.1,12.8c0,2.4,0.5,4.8,1.5,7.1c1,2.3,2.4,4.7,4.2,7.2l-0.1,0.1
		c-4.5,3.3-7.5,6.1-9,8.6c-1.5,2.5-2.3,5.2-2.3,8.2c0,5.5,2,10,5.8,13.4c3.9,3.4,9.1,5.1,15.6,5.1c3.3,0,6.3-0.4,8.9-1.1
		c2.6-0.7,5.2-1.8,7.7-3.3l3.1,3.5H646l-10-11.5C640.1,165.7,642.2,158.6,642.2,149.8z M608.4,129.4c1-1.1,2.3-1.6,4-1.6
		c1.4,0,2.6,0.5,3.6,1.5c1,1,1.4,2.2,1.4,3.6c0,1.5-0.3,2.7-0.9,3.6s-1.6,1.9-3,2.8l-3,1.9c-2.3-3-3.4-5.5-3.4-7.6
		C606.9,131.8,607.4,130.4,608.4,129.4z M610.4,171.8c-2,0-3.8-0.8-5.1-2.3c-1.4-1.5-2.1-3.4-2.1-5.6c0-2.6,0.9-5,2.6-7.1l0.4-0.3
		l11.8,13.4C615.6,171.2,613.1,171.8,610.4,171.8z"/>
	<path d="M711.5,121c-4.6-2.6-9.8-3.9-15.6-3.9h-21.1v65.5h21.5c5.7,0,10.8-1.4,15.4-4.1c4.6-2.7,8.2-6.4,10.7-11.2
		c2.5-4.8,3.8-10.1,3.8-16.1v-3c0-5.9-1.3-11.3-3.9-16.1C719.7,127.3,716.1,123.6,711.5,121z M710.1,151.2c0,6.4-1.2,11.1-3.6,14.4
		c-2.4,3.2-5.9,4.8-10.4,4.8h-5.5v-41.2h5.3c4.6,0,8.2,1.6,10.6,4.8c2.4,3.2,3.6,8,3.6,14.3V151.2z"/>
	<path d="M755.2,133c-4.9,0-9.1,1-12.6,3.1c-3.5,2.1-6.2,5-8.1,8.8c-1.8,3.8-2.8,8.2-2.8,13.2v1.3c0,7.1,2.3,12.9,6.9,17.4
		c4.6,4.5,10.7,6.7,18.1,6.7c4,0,7.7-0.8,11.2-2.3c3.5-1.5,6.1-3.6,8-6.2l-6.9-8.2c-2.7,3.4-6.4,5-11.3,5c-2.9,0-5.3-0.8-7.1-2.3
		c-1.8-1.6-3-3.7-3.6-6.4h30.1v-5.9c0-7.6-2-13.5-5.9-17.7C767.4,135.1,762,133,755.2,133z M762.5,153.5h-15.3
		c0.8-5.9,3.5-8.8,7.9-8.8c2.4,0,4.2,0.7,5.5,2c1.3,1.3,1.9,3.2,1.8,5.6V153.5z"/>
	<path d="M809.2,133c-4.7,0-8.6,1.8-11.5,5.4l-0.4-4.5h-14.2v67.4h15.2v-22.7c2.9,3.3,6.6,4.9,11,4.9c5.8,0,10.4-2.3,13.8-6.8
		c3.4-4.5,5.1-10.5,5.1-18.1v-0.7c0-7.7-1.7-13.8-5-18.2C819.9,135.2,815.2,133,809.2,133z M813.1,159.2c-0.2,8.3-2.6,12.5-7.5,12.5
		c-3.5,0-6-1.3-7.3-4v-19.2c1.2-2.6,3.6-3.9,7.2-3.9c5,0,7.6,4.3,7.6,13V159.2z"/>
	<rect x="835.3" y="113.4" width="15.2" height="69.1"/>
	<path d="M881,133c-4.8,0-8.9,1-12.5,3.1c-3.5,2-6.3,5-8.1,8.7c-1.9,3.8-2.8,8.1-2.8,13l0,2.6c0.3,7.1,2.6,12.7,6.8,16.9
		c4.2,4.2,9.8,6.2,16.7,6.2c7.2,0,12.9-2.2,17.1-6.7c4.2-4.5,6.3-10.5,6.3-18.1v-0.5c0-7.8-2.1-13.9-6.3-18.4
		C894.1,135.2,888.3,133,881,133z M889.4,159.3c-0.1,8.3-2.9,12.5-8.3,12.5c-2.8,0-4.8-1.1-6.3-3.1c-1.4-2.1-2.1-5.4-2.1-9.9l0-2.7
		c0.4-7.5,3.2-11.3,8.2-11.3c5.6,0,8.4,4.4,8.4,13.1V159.3z"/>
	<path d="M937.8,133.9l-8.1,27.4l-7.7-27.4h-16.2l16.9,49.2l-1.2,3.2c-0.5,1.6-1.4,2.7-2.5,3.3c-1.1,0.6-2.8,0.9-4.9,0.9h-2v10.8
		c2.2,0.6,4.3,0.9,6.3,0.9c7.1,0,12.1-3.1,14.9-9.4l0.9-2.1l19.8-56.8H937.8z"/>
	<path d="M458.2,21.5h-68.7v25.8h68.7c29.5,0,53.4,24,53.4,53.4v24.3c0,29.5-24,53.4-53.4,53.4h-82.7c-23.2,0-42-18.8-42-42
		c9.4-4.9,15.8-14.8,15.8-26.1c0-13-8.5-24.1-20.3-28V64.7c0-20.3-16.5-36.9-36.9-36.9h-82.2c-11.4,0-21.5,4.3-28.9,11.5
		c-6.7-7.3-16.4-11.9-27.1-11.9H67.2c-20.3,0-36.9,16.5-36.9,36.9v99.2c-11.8,3.9-20.3,15-20.3,28c0,16.3,13.2,29.5,29.5,29.5
		s29.5-13.2,29.5-29.5c0-11.6-6.8-21.7-16.6-26.5V64.3c0-8.1,6.6-14.7,14.7-14.7h86.6c8.1,0,14.7,6.6,14.7,14.7V83
		c-10.8,4.4-18.4,15-18.4,27.3c0,16.3,13.2,29.5,29.5,29.5s29.5-13.2,29.5-29.5c0-12.3-7.6-22.9-18.4-27.3V68.2
		c0.5-10.8,8.3-18.3,19.2-18.3H292c8.1,0,14.7,6.6,14.7,14.7v19.2c-9.8,4.8-16.6,14.8-16.6,26.5c0,12,7.2,22.3,17.5,26.9
		c0.5,37,30.7,67,67.8,67h82.7c43.7,0,79.2-35.5,79.2-79.2v-24.3C537.4,57,501.9,21.5,458.2,21.5z M39.6,206.2
		c-8.1,0-14.7-6.6-14.7-14.7c0-8.1,6.6-14.7,14.7-14.7s14.7,6.6,14.7,14.7C54.3,199.6,47.7,206.2,39.6,206.2z M179.6,125.1
		c-8.1,0-14.7-6.6-14.7-14.7s6.6-14.7,14.7-14.7c8.1,0,14.7,6.6,14.7,14.7S187.8,125.1,179.6,125.1z M319.7,95.6
		c8.1,0,14.7,6.6,14.7,14.7s-6.6,14.7-14.7,14.7s-14.7-6.6-14.7-14.7S311.5,95.6,319.7,95.6z"/>
	<path d="M487,112.8L487,112.8c0-22.6-18.3-40.9-40.9-40.9h-36.6v81.8h36.6C468.7,153.7,487,135.4,487,112.8z"/>
</g>
</svg>
