<?xml version="1.0" encoding="utf-8"?>
<!-- Generator: Adobe Illustrator 23.0.2, SVG Export Plug-In . SVG Version: 6.00 Build 0)  -->
<svg version="1.1" id="Capa_1" xmlns="http://www.w3.org/2000/svg" xmlns:xlink="http://www.w3.org/1999/xlink" x="0px" y="0px"
	 viewBox="0 0 300 300" style="enable-background:new 0 0 300 300;" xml:space="preserve">
<style type="text/css">
	.st0{fill:#6B6B6B;}
	.st1{fill:#D8E2EC;}
	.st2{fill:#E5EBF3;}
	.st3{fill:#FCD669;}
	.st4{fill:#FBB355;}
	.st5{fill:#F79959;}
	.st6{fill:#FFFFFF;}
</style>
<g>
	<polygon class="st0" points="80.8,189.2 145,152.2 209,189.2 144.9,226.2 	"/>
	<polygon class="st1" points="80.8,189.2 80.8,115.8 144.9,78.9 145,152.2 	"/>
	<path class="st2" d="M209,189.2c1.4-0.6-0.2-73.5-0.2-73.5l-63.9-36.9l0.1,73.4L209,189.2z"/>
	<g>
		<polygon class="st3" points="121.5,139.5 145,126 168.3,139.5 144.9,153 		"/>
		<polygon class="st4" points="121.5,166.4 121.5,139.5 144.9,153 144.9,179.9 		"/>
		<polygon class="st5" points="144.9,179.9 168.3,166.4 168.3,139.5 144.9,153 		"/>
	</g>
	<polygon class="st2" points="80.8,115.8 49,97.3 48,208 144.9,263.3 144.9,226.2 80.8,189.2 	"/>
	<polygon class="st1" points="208.9,115.8 240.8,92 240.8,208 144.9,263.3 144.9,226.2 209,189.2 	"/>
	<polygon class="st6" points="49,97.3 145,42 240.8,92 208.9,115.8 144.9,78.9 80.8,115.8 	"/>
</g>
</svg>
