<?xml version="1.0" encoding="utf-8"?>
<!-- Generator: Adobe Illustrator 23.0.2, SVG Export Plug-In . SVG Version: 6.00 Build 0)  -->
<svg version="1.1" id="Capa_1" xmlns="http://www.w3.org/2000/svg" xmlns:xlink="http://www.w3.org/1999/xlink" x="0px" y="0px"
	 viewBox="0 0 300 300" style="enable-background:new 0 0 300 300;" xml:space="preserve">
<style type="text/css">
	.st0{fill:#C0E4EF;}
	.st1{fill:#69BEC0;}
	.st2{fill:#1D8984;}
</style>
<g>
	<polygon class="st0" points="145.4,123.3 98.4,96.2 51.5,123.3 98.5,150.4 	"/>
	<polygon class="st1" points="145.4,177.5 145.4,123.3 98.5,150.4 98.5,204.6 	"/>
	<polygon class="st2" points="98.5,204.6 51.5,177.5 51.5,123.3 98.5,150.4 	"/>
	<polygon class="st0" points="192,150.9 145,123.9 98.1,150.9 145.1,178 	"/>
	<polygon class="st2" points="145.4,231.6 98.5,204.5 98.5,150.3 145.4,177.4 	"/>
	<polygon class="st0" points="192.1,96.8 145.1,69.7 98.2,96.8 145.1,123.9 	"/>
	<polygon class="st1" points="192.1,150.9 192.1,96.8 145.1,123.9 145.1,178 	"/>
	<polygon class="st2" points="145.1,178 98.2,150.9 98.2,96.8 145.1,123.9 	"/>
	<polygon class="st0" points="168.3,74.4 145.1,61 121.9,74.4 145.1,87.7 	"/>
	<polygon class="st1" points="168.3,101.1 168.3,74.4 145.1,87.7 145.1,114.5 	"/>
	<polygon class="st2" points="145.1,114.5 121.9,101.1 121.9,74.4 145.1,87.7 	"/>
	<polygon class="st0" points="154.7,66.5 145.1,61 135.5,66.5 145.1,72.1 	"/>
	<polygon class="st1" points="154.7,77.6 154.7,66.5 145.1,72.1 145.1,83.1 	"/>
	<polygon class="st2" points="145.1,83.1 135.5,77.6 135.5,66.5 145.1,72.1 	"/>
	<polygon class="st0" points="238.4,177.5 191.4,150.4 144.5,177.5 191.5,204.6 	"/>
	<polygon class="st1" points="238.4,231.6 238.4,177.5 191.5,204.6 191.4,258.7 	"/>
	<polygon class="st2" points="192.3,258.6 145.4,231.5 145.4,177.4 192.3,204.5 	"/>
</g>
</svg>
