<?xml version="1.0" encoding="utf-8"?>
<!-- Generator: Adobe Illustrator 23.0.2, SVG Export Plug-In . SVG Version: 6.00 Build 0)  -->
<svg version="1.1" id="Capa_1" xmlns="http://www.w3.org/2000/svg" xmlns:xlink="http://www.w3.org/1999/xlink" x="0px" y="0px"
	 viewBox="0 0 1000 1000" style="enable-background:new 0 0 1000 1000;" xml:space="preserve">
<style type="text/css">
	.st0{opacity:0.4;fill:url(#SVGID_1_);}
	.st1{fill:#1D8984;}
	.st2{fill:#C0E4EF;}
	.st3{fill:#4CABFB;}
	.st4{fill:#3460C0;}
	.st5{fill:#4370D2;}
	.st6{opacity:0.4;fill:url(#SVGID_2_);}
	.st7{opacity:0.4;fill:url(#SVGID_3_);}
	.st8{opacity:0.4;fill:url(#SVGID_4_);}
</style>
<linearGradient id="SVGID_1_" gradientUnits="userSpaceOnUse" x1="-64.1856" y1="236.1094" x2="779.3809" y2="1115.7429">
	<stop  offset="0" style="stop-color:#EAE9E9;stop-opacity:0"/>
	<stop  offset="1" style="stop-color:#000000"/>
</linearGradient>
<polygon class="st0" points="186.2,466.1 132.1,497.4 186.4,528.7 240.7,497.4 "/>
<path class="st1" d="M186.4,323.3"/>
<path class="st2" d="M185.6,323.2"/>
<polygon class="st3" points="434.8,111.6 166.3,267.1 300.7,344.6 435.1,267.1 "/>
<polygon class="st4" points="435.1,266.5 435.2,421.7 300.6,499.6 300.7,344.6 "/>
<polygon class="st3" points="434.8,111.6 300.9,189.1 435.3,266.6 569.6,189.1 "/>
<polygon class="st1" points="569.6,189.1 569.2,343.6 435.2,421.7 435.3,266.6 "/>
<polygon class="st1" points="434.6,421.6 434.1,576.1 300.1,654.1 300.2,499.1 "/>
<polygon class="st3" points="569.2,188.9 434.7,266.3 569.7,344 704,266.5 "/>
<polygon class="st5" points="435.1,266.5 435.2,421.7 569.6,499 569.7,344 "/>
<polygon class="st4" points="704,266.5 703.5,421 569.6,499 569.7,344 "/>
<polygon class="st1" points="435.2,421.7 434.1,576 300.2,654.1 300.2,499.1 "/>
<polygon class="st3" points="435.2,421.7 300.2,498.9 434.6,576.4 569,498.9 "/>
<linearGradient id="SVGID_2_" gradientUnits="userSpaceOnUse" x1="1153.9662" y1="977.8164" x2="-69.6393" y2="462.1922">
	<stop  offset="0.385" style="stop-color:#EAE9E9;stop-opacity:0"/>
	<stop  offset="1" style="stop-color:#000000"/>
</linearGradient>
<polygon class="st6" points="569.6,654.1 434.6,731.3 569,808.8 703.4,731.3 "/>
<polygon class="st5" points="300.2,498.9 300.2,653.9 434.5,731.4 434.6,576.4 "/>
<polygon class="st4" points="569,498.9 568.5,653.4 434.5,731.4 434.6,576.4 "/>
<polygon class="st3" points="817.9,407 730.3,457.7 818.2,508.4 906.1,457.7 "/>
<linearGradient id="SVGID_3_" gradientUnits="userSpaceOnUse" x1="1264.0061" y1="748.5598" x2="223.4071" y2="345.144">
	<stop  offset="0.3167" style="stop-color:#EAE9E9;stop-opacity:0"/>
	<stop  offset="0.56" style="stop-color:#000000"/>
</linearGradient>
<polygon class="st7" points="905.8,559.1 818.2,609.8 906.1,660.4 994,609.8 "/>
<polygon class="st5" points="730.3,457.7 730.3,559.1 818.2,609.8 818.2,508.4 "/>
<polygon class="st4" points="906.1,457.7 905.8,558.7 818.2,609.8 818.2,508.4 "/>
<linearGradient id="SVGID_4_" gradientUnits="userSpaceOnUse" x1="1008.6301" y1="1134.3843" x2="-100.0954" y2="652.1554">
	<stop  offset="0.3944" style="stop-color:#EAE9E9;stop-opacity:0"/>
	<stop  offset="1" style="stop-color:#000000"/>
</linearGradient>
<polygon class="st8" points="452.6,823.9 333.9,892.6 453.1,961.4 572.2,892.6 "/>
<polygon class="st5" points="214.7,686.5 214.7,823.9 333.8,892.6 333.9,755.2 "/>
<polygon class="st4" points="453,686.5 452.6,823.5 333.8,892.6 333.9,755.2 "/>
<polygon class="st3" points="131.9,372.1 77.8,403.4 132.1,434.7 186.4,403.4 "/>
<polygon class="st5" points="77.8,403.4 77.8,466.1 132.1,497.4 132.1,434.7 "/>
<polygon class="st4" points="186.4,403.4 186.2,465.9 132.1,497.4 132.1,434.7 "/>
<polygon class="st5" points="166.3,421.9 166.3,576.9 300.6,654.4 300.7,499.4 "/>
<polygon class="st5" points="166.3,267.1 166.3,422.1 300.6,499.6 300.7,344.6 "/>
<polygon class="st3" points="333.5,617.8 214.7,686.5 333.9,755.2 453,686.5 "/>
</svg>
