<?xml version="1.0" encoding="utf-8"?>
<!-- Generator: Adobe Illustrator 23.0.2, SVG Export Plug-In . SVG Version: 6.00 Build 0)  -->
<svg version="1.1" id="Capa_1" xmlns="http://www.w3.org/2000/svg" xmlns:xlink="http://www.w3.org/1999/xlink" x="0px" y="0px"
	 viewBox="0 0 1000 1000" style="enable-background:new 0 0 1000 1000;" xml:space="preserve">
<style type="text/css">
	.st0{fill:#4370D2;}
	.st1{fill:#3460C0;}
	.st2{fill:#4CABFB;}
	.st3{opacity:0.4;fill:url(#SVGID_1_);enable-background:new    ;}
	.st4{fill:#1D8984;}
	.st5{fill:#C0E4EF;}
	.st6{opacity:0.4;fill:url(#SVGID_2_);enable-background:new    ;}
	.st7{opacity:0.4;fill:url(#SVGID_3_);enable-background:new    ;}
	.st8{opacity:0.4;fill:url(#SVGID_4_);enable-background:new    ;}
</style>
<polygon class="st0" points="429.3,414.4 431.5,437.8 566.1,500.6 574.3,495.8 489.7,425.8 435.5,409.8 "/>
<polygon class="st0" points="167.3,426.7 167.3,453.5 308,518.6 326,477.3 167.3,414.4 "/>
<polygon class="st1" points="316.1,504.2 291.3,496.6 286.2,527.5 298.6,648 309.6,653.2 332.5,628.4 340.4,544.1 "/>
<polygon class="st2" points="415.2,423.1 418,424.4 418.5,431.1 295.9,521.2 289.5,506.9 312.9,477.6 399.2,426.8 "/>
<polygon class="st1" points="305,502.6 173,440.1 165.9,445 166.8,456.1 298.7,518.6 "/>
<polygon class="st1" points="127.4,428.4 129,439.4 141.9,435.8 186.4,408.8 186.4,403.6 172.6,399.3 138.4,411.7 "/>
<polygon class="st2" points="77.8,404.9 77.8,403.6 80.3,402.2 137.7,433.2 133.3,438.3 117.7,434.6 82.2,410.4 "/>
<polygon class="st1" points="128.9,433 128.9,495.7 132.1,497.5 136.2,495.1 136.2,432.6 "/>
<polygon class="st1" points="424,264.8 427.6,289.8 457,281.5 558.1,220.1 558.1,208.2 526.7,198.4 449,226.7 "/>
<polygon class="st2" points="310.9,211.2 310.9,208.2 316.7,204.9 447.4,275.5 437.4,287.1 401.8,278.7 320.9,223.8 "/>
<polygon class="st1" points="427.2,275.2 427.2,417.8 434.5,422 443.9,416.6 443.9,274.1 "/>
<polygon class="st1" points="288.7,327.5 292.6,354.4 324.2,345.4 433,279.5 433,266.7 399.1,256.1 315.7,286.5 "/>
<polygon class="st2" points="167.3,269.9 167.3,266.7 173.4,263.1 313.9,339 303.2,351.5 265,342.5 178,283.4 "/>
<polygon class="st1" points="292.2,338.7 292.2,492 300.1,496.5 310.2,490.6 310.2,337.5 "/>
<polygon class="st1" points="558.2,328.1 562.2,355.3 594,346.2 703.7,279.7 703.7,266.8 669.6,256.1 585.4,286.8 "/>
<polygon class="st2" points="435.6,270.1 435.6,266.8 441.8,263.2 583.6,339.7 572.8,352.3 534.2,343.3 446.4,283.6 "/>
<polygon class="st1" points="561.7,339.5 561.7,494.1 569.7,496.7 579.9,490.8 579.9,338.3 "/>
<polygon class="st1" points="423,560.3 427,587.5 458.9,578.4 568.8,511.8 568.8,498.9 534.6,488.2 450.2,518.9 "/>
<polygon class="st2" points="300.3,502.2 300.3,498.9 306.5,495.3 448.5,571.9 437.6,584.5 399,575.5 311.1,515.8 "/>
<polygon class="st1" points="426.5,571.7 426.5,726.6 434.5,731.2 444.7,725.2 444.7,570.5 "/>
<polygon class="st1" points="323.7,741.1 327.2,765.2 355.5,757.2 453,698.1 453,686.6 422.7,677.1 347.8,704.4 "/>
<polygon class="st2" points="214.8,689.5 214.8,686.6 220.3,683.4 346.3,751.4 336.6,762.6 302.4,754.5 224.4,701.6 "/>
<polygon class="st1" points="326.8,751.1 326.8,888.6 333.9,892.6 342.9,887.4 342.9,750.1 "/>
<polygon class="st1" points="810.7,497.9 813.3,515.7 834.2,509.8 906.1,466.2 906.1,457.7 883.7,450.7 828.5,470.8 "/>
<polygon class="st2" points="730.3,459.8 730.3,457.7 734.4,455.3 827.3,505.5 820.2,513.8 794.9,507.8 737.4,468.7 "/>
<polygon class="st1" points="813,505.3 813,606.8 818.2,609.8 824.9,605.9 824.9,504.6 "/>
<linearGradient id="SVGID_1_" gradientUnits="userSpaceOnUse" x1="465.955" y1="754.5378" x2="-190.5612" y2="150.6668">
	<stop  offset="0.3167" style="stop-color:#EAE9E9;stop-opacity:0"/>
	<stop  offset="0.56" style="stop-color:#000000"/>
</linearGradient>
<polygon class="st3" points="186.2,466.1 132.1,497.4 186.4,528.7 240.7,497.4 "/>
<path class="st4" d="M186.4,323.3"/>
<path class="st5" d="M185.6,323.2"/>
<polygon class="st2" points="434.8,111.6 166.3,267.1 300.7,344.6 435.1,267.1 "/>
<polygon class="st1" points="435.1,266.5 435.2,421.7 300.6,499.6 300.7,344.6 "/>
<polygon class="st2" points="434.8,111.6 300.9,189.1 435.3,266.6 569.6,189.1 "/>
<polygon class="st4" points="569.6,189.1 569.2,343.6 435.2,421.7 435.3,266.6 "/>
<polygon class="st2" points="569.2,188.9 434.7,266.3 569.7,344 704,266.5 "/>
<polygon class="st0" points="435.1,266.5 435.2,421.7 569,498.9 569.7,344 "/>
<polygon class="st1" points="704,266.5 703.5,421 569,498.9 569.7,344 "/>
<polygon class="st4" points="435.2,421.7 434.1,576 300.2,654.1 300.2,499.1 "/>
<polygon class="st2" points="435.2,421.7 300.2,498.9 434.6,576.4 569,498.9 "/>
<linearGradient id="SVGID_2_" gradientUnits="userSpaceOnUse" x1="750.9223" y1="893.1103" x2="442.7933" y2="619.0458">
	<stop  offset="0.385" style="stop-color:#EAE9E9;stop-opacity:0"/>
	<stop  offset="1" style="stop-color:#000000"/>
</linearGradient>
<polygon class="st6" points="569.6,654.1 434.6,731.3 569,808.8 703.4,731.3 "/>
<polygon class="st0" points="300.2,498.9 300.2,653.9 434.5,731.4 434.6,576.4 "/>
<polygon class="st1" points="569,498.9 568.5,653.4 434.5,731.4 434.6,576.4 "/>
<polygon class="st2" points="817.9,407 730.3,457.7 818.2,508.4 906.1,457.7 "/>
<linearGradient id="SVGID_3_" gradientUnits="userSpaceOnUse" x1="1103.204" y1="825.7574" x2="569.0105" y2="240.4671">
	<stop  offset="0.3167" style="stop-color:#EAE9E9;stop-opacity:0"/>
	<stop  offset="0.4781" style="stop-color:#000000"/>
</linearGradient>
<polygon class="st7" points="905.8,559.1 818.2,609.8 906.1,660.4 994,609.8 "/>
<polygon class="st0" points="730.3,457.7 730.3,559.1 818.2,609.8 818.2,508.4 "/>
<polygon class="st1" points="906.1,457.7 905.8,558.7 818.2,609.8 818.2,508.4 "/>
<linearGradient id="SVGID_4_" gradientUnits="userSpaceOnUse" x1="600.8146" y1="1020.4209" x2="348.4275" y2="802.0983">
	<stop  offset="0.3944" style="stop-color:#EAE9E9;stop-opacity:0"/>
	<stop  offset="1" style="stop-color:#000000"/>
</linearGradient>
<polygon class="st8" points="452.6,823.9 333.9,892.6 453.1,961.4 572.2,892.6 "/>
<polygon class="st0" points="214.7,686.5 214.7,823.9 333.8,892.6 333.9,755.2 "/>
<polygon class="st1" points="453,686.5 452.6,823.5 333.8,892.6 333.9,755.2 "/>
<polygon class="st2" points="131.9,372.1 77.8,403.4 132.1,434.7 186.4,403.4 "/>
<polygon class="st0" points="77.8,403.4 77.8,466.1 132.1,497.4 132.1,434.7 "/>
<polygon class="st1" points="186.4,403.4 186.2,465.9 132.1,497.4 132.1,434.7 "/>
<polygon class="st0" points="166.3,421.9 166.3,576.9 300.6,654.4 300.7,499.4 "/>
<polygon class="st0" points="166.3,267.1 166.3,422.1 300.6,499.6 300.7,344.6 "/>
<polygon class="st2" points="333.5,617.8 214.7,686.5 333.9,755.2 453,686.5 "/>
</svg>
